P2
# imagem.pgm
60 100
255
51 6 9 32 45 42 48 23 9 39 12 8 4 50 5 18 45 49 33 27 1 34 52 9 50 10 6 9 8 14 23 44 20 32 20 49 19 12 17 28 51 29 20 39 7 9 1 52 3 19 24 4 53 4 53 31 14 3 40 7 
2 47 51 6 24 15 0 43 11 1 55 46 14 19 14 21 28 15 1 15 18 9 3 55 53 1 14 12 44 39 3 46 30 38 37 54 37 37 25 48 22 24 22 36 43 36 41 16 36 42 31 38 36 19 38 33 20 36 29 48 
19 32 23 50 14 4 48 51 25 18 27 47 42 34 11 14 14 52 30 34 22 45 17 2 8 39 36 12 19 9 45 39 26 12 17 24 0 9 20 25 11 31 0 38 9 11 52 8 7 10 26 29 39 43 32 48 10 52 44 14 
45 33 37 15 45 54 40 29 47 44 54 3 3 54 25 13 49 21 5 0 15 31 14 54 3 30 30 53 26 19 11 55 36 48 15 10 46 39 39 38 11 38 25 14 20 50 11 14 55 16 54 14 32 52 52 35 26 27 32 36 
30 28 36 10 20 35 20 11 2 4 33 13 26 2 27 46 52 39 44 35 55 43 49 15 39 45 50 50 0 11 14 30 39 50 41 3 13 5 54 15 9 31 28 35 17 0 10 53 23 54 32 6 25 9 22 49 55 16 27 55 
11 41 14 50 36 55 38 33 4 36 49 54 52 5 17 53 45 11 51 12 50 27 19 3 37 41 52 20 1 23 3 13 49 17 47 13 16 29 46 5 50 23 43 30 29 44 27 18 0 22 31 34 34 50 37 55 19 18 19 20 
25 22 17 18 24 49 31 40 22 22 29 0 29 0 30 2 45 2 5 29 24 36 7 42 14 28 41 33 46 4 37 16 11 39 34 35 32 50 3 38 0 33 39 29 17 53 32 6 55 37 35 8 1 26 50 55 55 36 32 45 
24 53 45 35 36 8 54 52 2 2 19 2 19 42 31 36 39 47 27 23 12 46 31 53 17 9 52 0 45 28 29 14 10 19 33 30 27 32 11 13 18 30 15 37 0 30 1 39 6 28 46 18 19 21 16 20 31 12 20 4 
25 49 2 19 52 36 49 7 52 4 20 14 18 19 35 18 50 36 42 0 49 32 2 12 54 2 32 13 55 36 17 8 13 20 27 10 40 20 1 36 9 22 34 27 41 13 30 19 33 16 3 10 32 46 6 14 48 22 27 47 
2 29 39 16 49 10 10 33 15 11 53 8 17 31 19 43 28 49 6 45 49 50 40 26 40 46 40 32 13 52 8 15 25 47 15 18 42 9 35 41 5 16 49 6 31 12 49 43 46 40 32 39 34 16 49 18 47 34 34 4 
30 26 3 39 18 3 1 44 52 20 29 41 36 6 48 11 2 25 54 48 9 14 16 27 15 9 29 6 27 8 50 41 18 53 24 36 40 9 8 37 13 37 22 49 27 54 44 30 24 26 22 17 25 22 45 24 32 2 30 43 
10 8 13 29 5 21 49 46 31 42 11 44 7 17 22 35 16 50 9 40 5 15 1 30 38 30 54 54 33 12 25 27 20 38 0 9 4 34 39 19 20 50 47 11 12 53 46 28 48 55 52 53 15 53 11 37 28 9 35 5 
21 4 32 25 27 17 34 15 35 18 34 39 52 25 50 48 7 41 20 55 24 16 36 23 54 47 4 10 0 23 55 5 12 31 14 39 32 48 54 51 50 16 34 47 25 13 39 32 38 44 31 6 44 11 30 26 42 18 36 42 
42 35 31 38 51 45 21 27 22 3 7 16 19 41 47 44 38 31 21 20 3 36 27 31 32 41 2 18 43 38 45 13 18 20 51 53 50 0 24 16 3 31 16 22 1 8 51 39 23 16 4 26 52 15 1 28 40 3 31 27 
26 20 41 28 24 36 25 18 37 33 18 40 49 35 47 34 43 42 17 50 42 5 20 22 4 5 35 44 49 10 16 19 30 1 47 54 21 0 1 42 33 19 27 26 54 2 4 25 28 6 19 14 51 23 20 0 29 55 28 6 
49 28 25 7 13 0 6 35 0 7 21 17 10 32 28 49 18 16 18 46 22 22 44 2 45 49 42 2 48 14 8 26 27 17 33 40 1 39 19 41 30 25 3 25 41 31 18 4 31 20 34 38 42 23 40 16 16 10 18 48 
8 11 18 35 28 52 20 30 19 23 15 34 48 2 3 18 17 5 22 49 25 0 31 12 7 55 28 23 9 30 0 1 41 2 37 54 54 1 12 2 8 11 36 41 14 23 3 15 28 25 48 37 9 23 49 17 6 5 40 55 
20 24 1 5 27 38 43 9 23 55 11 15 11 31 0 9 38 3 24 10 12 17 48 22 24 25 39 31 15 7 14 35 32 55 24 43 21 12 52 28 11 8 44 6 23 44 15 6 48 40 0 4 1 32 10 9 42 49 24 1 
1 39 36 17 38 44 4 44 0 0 16 52 48 4 2 16 49 18 6 25 2 46 13 43 23 24 52 9 17 5 50 2 44 14 19 10 2 7 54 3 48 15 55 40 19 1 40 52 3 30 21 5 21 19 32 44 43 13 37 44 
18 31 31 46 45 34 40 47 42 39 34 34 38 17 2 41 19 43 38 6 1 43 52 22 6 28 50 33 25 31 22 27 46 53 17 19 31 2 11 1 25 29 35 7 47 38 48 50 9 14 0 10 2 52 17 48 9 11 26 18 
95 78 78 79 69 92 65 98 97 58 47 82 92 84 96 63 77 72 75 102 97 88 69 71 63 95 63 72 94 71 53 83 104 86 59 67 72 79 61 66 94 63 103 82 103 96 101 76 64 70 73 55 54 99 82 75 88 100 102 78 
67 51 58 65 92 72 89 61 47 105 84 96 65 83 72 64 73 69 95 94 95 64 105 45 59 83 75 104 79 74 77 101 80 90 60 69 58 45 85 60 105 63 50 66 101 77 87 71 102 79 59 93 98 58 95 54 96 67 52 69 
96 86 66 72 70 81 96 85 81 75 100 83 93 105 45 91 79 88 56 77 63 70 64 55 86 53 66 78 77 74 105 67 54 65 95 82 104 87 61 81 57 56 60 46 57 61 92 91 45 105 62 63 70 83 75 50 94 97 85 65 
67 84 88 76 105 79 54 103 60 73 78 74 86 94 76 98 51 64 86 51 64 103 71 91 83 103 98 71 94 77 91 55 56 75 89 57 50 100 56 66 67 89 97 49 79 69 105 87 89 85 95 49 84 60 95 61 58 87 87 48 
60 75 61 73 105 105 85 50 101 96 73 65 82 66 69 57 91 68 100 74 47 89 78 89 46 69 105 61 52 89 64 67 58 80 96 59 81 77 66 79 70 96 99 46 57 62 58 103 88 54 71 92 99 45 75 102 71 75 57 78 
58 78 102 73 55 94 89 93 66 50 66 91 103 59 94 54 79 48 51 61 58 79 47 53 81 78 49 46 49 63 81 64 96 78 94 45 68 77 94 89 84 56 76 82 71 66 91 46 70 100 62 83 75 66 91 53 101 97 56 105 
54 93 63 105 67 51 47 90 86 98 76 64 48 48 101 76 70 89 77 95 85 96 74 56 57 61 64 52 52 76 52 61 65 72 60 89 81 62 75 61 56 45 82 60 49 78 93 76 63 65 67 103 57 96 53 69 51 75 79 58 
47 86 74 69 54 91 52 92 50 82 47 61 85 87 78 91 59 68 61 79 90 83 78 102 75 86 66 83 57 100 98 59 82 66 85 93 53 92 80 58 71 84 77 50 65 51 96 81 74 53 56 58 93 89 55 62 72 78 102 84 
74 94 101 52 54 80 100 64 69 76 78 95 57 51 102 77 57 94 55 87 102 66 100 89 50 51 47 77 84 104 57 52 92 52 59 103 90 56 61 55 87 96 46 99 102 103 73 54 91 83 98 89 45 92 72 52 99 76 86 79 
76 99 87 62 47 101 61 92 51 77 104 96 70 105 89 66 102 58 77 89 98 69 72 99 58 101 45 53 73 87 87 104 82 70 60 84 68 76 73 76 50 71 66 75 71 52 98 69 65 72 53 58 98 82 51 50 80 53 60 47 
97 105 46 73 71 63 54 94 97 84 65 104 49 86 73 77 95 67 104 55 94 53 68 87 90 76 94 66 86 51 69 78 52 72 47 78 92 58 67 83 97 87 81 104 69 50 75 59 75 73 71 63 83 96 46 68 66 98 91 48 
104 56 81 50 83 86 83 70 99 46 49 91 90 88 89 54 93 60 70 62 91 98 83 68 88 86 93 50 80 79 53 80 90 92 85 70 72 65 97 67 68 101 54 53 83 100 64 73 55 91 92 103 83 69 67 67 52 55 72 87 
91 80 62 77 66 104 102 95 65 93 57 89 91 68 99 68 63 57 96 75 103 83 72 82 48 94 104 57 45 70 100 91 105 58 63 68 58 61 57 79 51 71 64 97 95 57 59 52 71 52 82 68 92 50 105 95 101 103 49 102 
69 45 87 68 58 46 93 73 65 45 48 71 73 67 62 62 81 76 71 46 85 49 71 71 54 70 63 50 69 67 48 93 67 92 58 82 96 45 49 55 47 53 81 78 77 98 95 55 70 63 56 50 67 83 78 77 49 96 84 76 
57 89 65 81 75 78 57 65 81 64 75 85 72 50 57 45 105 49 55 70 67 67 77 89 46 49 62 52 103 103 83 56 86 104 93 56 78 105 78 53 65 48 96 92 55 49 93 55 53 103 82 75 66 53 61 69 59 78 77 56 
78 54 68 58 54 55 71 88 56 105 98 77 49 90 65 61 95 54 73 103 54 49 75 77 59 91 102 74 65 73 87 98 84 49 53 94 61 79 78 75 80 72 48 86 57 68 103 46 80 70 104 89 77 73 60 91 60 56 61 81 
86 45 73 65 49 81 55 68 57 90 98 92 56 103 73 68 65 72 71 102 99 70 85 72 100 103 60 57 53 76 93 97 76 62 58 83 101 68 47 52 54 100 101 65 97 70 91 58 97 56 57 93 83 97 59 80 96 74 92 46 
47 81 98 80 98 50 57 93 75 61 100 84 55 98 45 48 62 91 64 56 105 76 104 84 69 57 58 60 89 46 61 91 82 55 67 75 60 82 64 90 98 61 70 50 53 70 53 70 58 74 83 57 46 81 96 73 96 51 88 81 
52 45 68 90 55 90 61 72 66 82 58 59 98 83 64 47 49 74 75 62 45 52 74 48 91 67 76 81 73 60 56 80 62 79 66 72 65 84 101 87 61 53 103 55 93 63 58 98 94 90 54 96 97 86 100 82 47 70 59 77 
88 72 53 105 47 75 74 68 55 69 51 73 80 50 84 67 68 99 59 58 83 69 49 76 51 104 55 53 70 69 85 52 97 93 54 101 64 83 63 75 48 71 103 83 76 83 45 101 76 61 54 55 87 58 87 93 56 97 101 81 
112 132 141 105 122 150 101 143 129 121 112 132 148 112 112 120 152 114 116 123 130 125 135 112 138 118 99 151 109 97 126 129 136 113 139 102 107 147 151 141 113 109 120 107 128 137 134 125 97 155 153 132 126 134 151 110 97 97 105 113 
99 139 147 140 96 133 150 111 124 147 98 144 100 123 97 134 106 137 103 110 138 102 148 109 141 145 124 143 147 137 101 151 122 155 138 125 132 132 141 101 123 147 152 130 114 155 108 128 136 118 143 118 127 137 134 113 127 105 102 118 
147 110 116 115 112 98 145 149 137 133 96 106 124 154 141 145 153 96 117 133 119 107 97 154 151 137 113 124 149 120 150 142 138 110 101 155 115 151 150 96 128 152 109 96 150 155 149 147 97 112 126 122 124 128 122 122 111 140 151 104 
104 145 151 149 101 98 150 121 155 145 124 129 141 138 133 135 138 126 128 140 143 100 108 114 135 135 143 152 119 138 102 131 130 100 126 136 103 121 102 104 110 131 141 95 114 120 137 98 151 111 145 140 116 100 100 95 140 148 154 106 
133 101 142 107 108 112 148 118 140 96 128 155 135 115 96 95 140 140 98 137 95 150 123 116 155 129 119 140 123 117 153 100 125 141 112 138 99 107 103 145 110 138 144 150 97 148 150 144 132 155 125 133 150 155 95 149 130 121 135 98 
144 132 105 115 117 123 100 122 137 108 111 152 151 101 149 155 154 143 143 131 145 114 110 139 113 112 134 149 139 114 154 129 151 103 151 115 133 95 142 116 108 99 115 105 105 108 104 106 97 152 144 147 110 100 132 131 117 111 126 102 
130 124 138 127 134 134 147 112 134 135 133 150 139 153 101 152 107 111 104 110 109 153 103 127 99 141 104 121 96 135 131 133 105 113 104 144 152 98 100 133 138 141 129 124 138 135 122 153 153 131 107 109 130 115 141 134 102 150 101 105 
131 137 143 141 95 155 129 154 97 135 131 140 122 106 108 106 147 135 103 144 112 115 97 147 138 145 125 147 141 132 97 116 115 145 101 115 144 138 116 146 119 154 133 146 105 148 96 96 130 105 147 147 127 152 141 111 141 112 103 129 
151 105 150 111 96 98 133 148 141 154 138 104 153 117 155 102 110 97 103 145 107 96 138 142 153 123 97 139 141 107 114 136 117 108 152 121 113 130 113 98 128 97 109 127 120 110 134 135 113 144 126 127 146 108 113 143 137 118 128 124 
130 147 104 155 102 103 120 120 138 140 126 112 142 142 145 106 97 125 148 117 114 118 151 104 134 109 154 115 134 127 146 108 120 155 109 127 102 134 155 147 118 125 104 107 111 95 118 115 125 113 139 144 136 135 155 114 151 154 136 129 
127 126 144 152 128 98 124 135 139 123 129 102 155 138 114 112 140 139 135 109 96 118 100 140 97 101 100 153 99 144 126 131 116 115 130 149 120 98 131 103 128 104 112 129 149 133 146 133 117 125 149 120 151 154 104 153 100 112 153 106 
100 125 145 121 147 119 115 111 124 153 120 96 101 137 132 155 115 122 132 139 155 125 103 150 126 115 149 133 132 146 144 137 118 133 102 109 98 124 128 127 121 153 130 129 136 106 128 97 136 106 141 135 139 152 131 109 111 124 149 148 
117 139 131 142 119 140 95 122 111 128 155 137 127 129 113 110 141 146 112 121 99 98 102 143 155 138 98 112 108 152 106 132 135 142 118 100 128 121 128 144 95 127 126 128 102 144 143 150 136 101 117 140 104 126 129 105 110 134 124 124 
132 135 102 114 123 128 119 96 154 152 145 154 125 117 128 133 107 117 129 149 124 152 135 135 122 111 148 138 150 118 108 127 98 117 146 128 150 111 129 150 108 119 151 138 143 123 117 95 148 152 151 118 150 132 99 116 148 154 100 145 
117 115 118 122 138 110 155 134 126 129 129 139 155 124 124 142 154 146 144 146 142 139 110 138 118 115 101 110 113 106 101 137 129 124 103 113 139 103 152 110 139 127 154 140 97 122 128 96 115 117 149 103 102 106 147 125 126 153 143 146 
105 149 128 141 120 136 98 103 146 97 118 129 131 119 115 134 148 149 137 107 110 132 118 119 143 109 152 113 108 139 106 118 134 139 104 98 121 109 109 114 113 132 150 150 97 110 128 151 103 111 104 120 148 129 144 136 143 140 95 97 
125 106 121 106 150 132 109 118 148 123 137 106 102 131 100 106 146 135 103 95 151 115 120 145 149 111 125 139 97 126 141 130 137 106 141 134 145 96 96 138 127 140 151 136 115 95 147 108 137 95 110 132 115 136 121 108 154 154 152 97 
124 138 132 107 151 119 146 143 121 149 127 155 133 122 135 95 122 126 110 105 126 125 142 148 107 109 103 107 109 101 110 140 144 149 153 142 113 145 131 139 139 102 140 118 129 119 120 97 150 135 107 123 107 95 117 121 111 125 134 128 
132 151 112 122 144 109 110 101 99 146 147 145 155 131 107 130 96 135 134 152 116 146 121 128 148 143 96 106 115 137 139 152 132 95 120 122 112 136 129 116 128 122 107 128 100 119 102 101 98 142 99 120 134 125 155 129 115 97 140 137 
139 125 133 115 127 99 143 144 140 118 106 115 147 118 148 152 145 96 98 150 145 102 116 126 135 116 99 96 120 146 138 104 117 117 126 149 123 115 138 108 138 149 128 132 114 122 128 103 125 133 97 115 143 119 146 122 142 152 125 106 
194 159 167 155 183 199 150 150 158 193 165 204 189 198 180 147 166 154 157 197 193 159 158 180 185 148 148 173 146 178 187 197 194 148 146 171 204 153 176 159 202 197 157 187 191 194 191 152 203 203 145 190 158 158 164 201 163 167 168 166 
202 151 157 190 157 160 155 155 168 187 169 166 180 183 147 165 171 193 174 169 190 176 153 145 189 175 201 148 199 165 169 196 172 181 180 184 198 193 196 161 176 160 182 150 200 187 172 166 174 204 192 161 174 202 161 160 171 158 163 165 
178 190 157 146 167 192 187 160 181 178 178 151 195 154 156 189 196 186 149 167 184 196 185 154 195 203 171 160 155 190 182 190 176 194 194 198 183 175 154 158 149 187 165 199 199 178 183 191 160 189 154 201 182 194 150 171 191 176 188 203 
162 165 188 195 155 178 188 193 147 199 148 152 183 170 147 178 205 185 165 160 171 175 155 149 163 160 177 151 194 161 148 152 181 193 203 194 167 187 181 170 180 186 179 159 150 181 192 150 163 152 165 191 182 177 195 202 195 168 149 183 
184 155 192 162 205 189 150 167 170 188 194 147 169 167 163 176 203 150 181 160 159 203 145 198 175 197 196 166 159 201 204 201 152 192 157 151 176 162 175 203 146 163 146 170 185 165 202 183 170 179 200 186 179 201 178 148 194 168 169 148 
165 169 204 172 155 157 181 188 176 150 186 177 169 187 205 148 146 203 188 173 178 183 153 151 180 188 156 168 153 182 173 175 145 173 203 158 185 180 201 155 185 183 190 150 165 191 156 168 188 199 199 162 178 148 169 154 192 180 178 202 
157 145 171 159 176 170 172 155 205 170 168 187 149 154 194 171 200 205 195 184 201 190 201 173 193 164 183 181 202 157 179 153 159 145 169 190 172 199 201 174 165 165 157 169 174 145 196 168 145 187 146 201 171 204 168 160 163 147 199 161 
159 172 169 174 172 195 160 202 188 155 170 147 177 182 172 145 182 164 170 184 145 173 179 173 172 205 188 192 148 181 147 165 150 173 194 177 162 148 175 145 161 200 149 195 178 176 198 155 197 162 194 197 193 170 166 159 171 151 147 174 
189 149 194 194 177 184 168 196 190 198 198 147 193 203 197 165 175 189 177 167 148 168 160 196 195 182 149 160 188 153 191 171 157 180 160 191 160 185 181 205 177 174 148 166 173 201 187 203 186 160 164 191 183 180 181 172 158 187 189 201 
195 175 168 146 151 185 194 166 164 172 168 197 201 171 159 168 168 201 167 149 158 187 195 196 163 173 165 176 154 148 173 146 178 196 149 184 178 199 147 199 165 170 192 162 196 146 187 159 202 148 165 154 190 156 147 149 186 169 182 196 
172 149 197 147 203 201 188 175 196 190 170 155 156 157 174 147 158 155 163 156 159 185 168 145 198 170 150 179 196 187 171 162 192 162 166 191 159 151 162 152 198 187 164 149 199 194 153 151 204 173 165 157 152 188 158 205 154 165 180 205 
146 145 163 195 164 187 180 181 193 199 188 185 181 146 191 176 195 199 185 196 166 205 149 175 187 162 175 198 182 151 199 186 152 156 175 171 198 152 146 187 145 191 167 183 193 152 154 184 148 194 176 171 193 181 202 176 200 173 170 177 
179 163 159 186 176 191 154 171 198 155 152 201 202 176 178 191 186 189 171 189 177 203 154 166 178 152 199 172 180 165 145 154 183 161 197 156 147 145 182 202 158 191 197 154 162 172 202 203 155 169 188 190 168 199 150 203 146 146 172 181 
166 172 192 146 191 184 157 193 184 196 191 197 181 183 147 198 151 145 197 161 170 181 145 193 175 153 193 178 154 159 155 175 188 203 178 173 183 190 162 161 182 148 155 158 186 159 152 192 160 146 149 187 182 150 176 153 158 163 186 167 
177 199 199 160 196 172 188 173 158 145 191 196 150 203 148 191 157 157 179 172 158 183 153 196 190 186 145 205 205 187 168 178 180 162 193 172 191 178 202 204 180 189 196 185 187 201 172 199 153 145 165 166 185 175 158 172 157 159 171 156 
203 195 192 179 153 179 147 199 153 204 199 188 187 192 167 170 187 196 163 195 198 185 158 178 156 171 146 169 187 172 182 186 161 168 159 171 205 161 164 152 161 160 198 145 146 161 170 188 152 189 180 205 168 193 179 182 160 180 145 205 
147 182 185 165 147 202 192 146 157 152 155 174 167 147 174 170 164 201 155 171 184 190 170 149 179 205 186 196 181 188 195 183 164 177 204 168 173 192 169 187 199 180 157 163 184 188 188 203 184 198 168 162 184 196 168 159 197 148 150 172 
193 202 152 152 175 150 177 203 199 204 187 192 180 199 149 158 182 195 156 160 189 181 179 170 173 203 184 164 147 191 194 196 190 201 205 159 147 178 159 201 176 201 187 150 194 194 164 172 185 177 187 168 152 163 195 181 160 174 202 164 
161 190 156 145 187 155 160 189 189 174 184 161 171 168 167 161 158 188 189 198 159 170 162 168 188 152 145 205 183 203 166 199 189 177 200 171 190 156 156 175 187 198 191 152 160 154 168 173 197 153 167 150 179 184 176 163 193 176 165 170 
173 186 166 159 159 162 187 204 173 198 175 156 190 161 163 146 172 188 174 164 197 198 171 172 179 202 192 168 173 151 194 203 194 156 156 148 173 198 148 203 191 179 153 177 197 173 179 163 155 149 182 148 203 150 177 178 146 164 201 176 
220 241 224 211 252 237 214 221 230 217 218 217 251 226 251 242 254 224 200 206 229 239 209 228 244 242 200 248 202 195 218 227 242 249 243 240 231 203 206 207 226 229 231 223 202 226 210 200 195 217 213 231 200 228 203 252 216 210 246 223 
210 208 196 198 204 247 246 240 255 198 254 225 232 229 195 241 199 210 249 201 234 206 237 241 241 247 237 201 201 227 231 219 243 233 224 252 224 214 238 225 217 236 197 196 211 197 244 217 212 237 226 253 249 209 238 234 201 220 243 209 
254 218 235 243 195 204 241 226 225 223 198 250 205 200 253 223 202 241 246 221 223 216 218 216 230 200 196 238 227 244 255 228 207 234 215 209 243 201 243 215 231 246 209 242 253 206 209 201 252 201 229 221 224 252 244 201 198 246 244 233 
236 243 207 250 224 227 206 211 235 254 231 211 246 247 199 245 199 215 251 196 224 224 224 253 222 213 198 227 205 250 206 246 239 218 241 207 251 252 226 230 252 203 248 244 195 252 235 199 214 230 202 243 200 232 240 229 250 246 200 201 
240 212 252 225 235 239 238 232 237 208 209 233 216 201 223 218 200 204 223 219 239 232 206 246 208 253 219 204 243 225 210 229 244 207 199 223 253 244 200 235 198 216 214 219 222 243 245 227 252 212 253 238 249 205 230 204 205 255 213 255 
226 231 231 216 245 235 244 242 225 251 221 228 211 241 254 241 230 243 214 228 201 214 212 197 224 248 206 234 249 226 236 221 203 211 242 253 253 232 240 222 228 207 196 246 255 255 233 229 245 253 204 253 211 221 255 242 215 207 223 208 
241 203 234 249 219 220 247 218 197 233 245 232 245 248 224 245 249 204 220 238 201 229 236 219 195 237 207 215 250 235 231 235 245 209 228 210 237 221 233 241 198 224 219 249 216 250 240 210 198 204 255 206 241 237 232 243 219 245 202 215 
226 240 196 218 196 231 233 240 197 213 225 200 244 251 195 205 245 242 222 249 252 221 199 237 203 237 224 229 228 233 249 198 220 250 223 221 225 201 205 229 221 237 235 209 232 237 221 221 224 248 214 222 216 221 205 224 202 236 199 237 
213 253 240 240 249 208 205 220 216 217 255 244 200 236 197 237 219 224 205 248 218 224 214 239 252 226 209 200 206 213 242 227 212 229 211 207 244 224 235 204 248 234 253 254 216 196 237 242 227 247 235 253 218 195 236 214 227 251 220 240 
210 208 211 228 242 228 242 230 198 221 241 251 201 240 249 222 242 231 209 215 224 251 212 247 253 195 206 226 253 233 211 207 246 227 242 235 201 229 209 204 255 195 202 203 240 195 232 228 233 248 251 202 243 207 195 243 207 208 213 204 
246 229 219 239 203 205 218 209 241 234 221 243 234 228 251 221 230 227 195 208 220 251 217 209 205 219 196 219 233 215 231 225 251 255 208 198 206 233 213 255 212 239 242 251 211 239 218 246 210 219 200 237 216 224 252 228 251 255 253 228 
216 228 197 212 229 213 215 242 251 235 241 207 218 229 205 236 212 228 229 230 254 236 213 217 207 211 250 202 211 249 237 232 221 239 249 196 196 211 246 255 251 231 206 216 207 216 198 226 252 232 202 252 215 221 213 229 239 208 236 255 
201 219 234 230 202 229 233 206 247 223 207 243 201 218 205 215 242 208 246 238 248 254 234 207 221 255 241 204 209 223 206 215 247 245 252 195 220 232 208 212 199 220 201 207 244 211 227 232 224 220 214 216 218 255 230 246 254 217 255 207 
247 207 230 238 198 228 241 224 204 254 243 211 219 249 225 209 204 197 248 233 222 206 196 247 207 233 239 206 195 238 220 247 253 255 232 195 228 217 224 239 215 211 196 241 206 227 196 215 231 249 195 199 201 198 251 214 236 234 227 236 
218 252 230 217 254 206 218 228 230 249 213 252 207 215 238 218 247 241 239 224 237 241 228 245 244 225 205 224 205 239 207 230 236 242 253 236 255 215 208 229 208 226 225 220 248 209 246 239 197 229 207 241 214 242 230 204 211 243 233 221 
226 245 196 208 233 254 249 232 215 203 207 228 237 238 195 229 254 246 215 195 221 229 241 242 216 218 251 234 205 228 200 238 220 203 252 197 203 247 237 223 197 249 197 239 233 199 214 234 250 234 234 217 208 222 203 231 247 198 209 198 
234 216 241 200 224 239 202 234 233 246 201 235 242 206 220 219 210 239 199 207 218 239 229 233 207 240 210 200 243 224 203 223 248 251 228 218 237 238 197 214 228 205 195 214 216 220 241 232 203 245 244 228 230 219 205 244 203 222 249 254 
254 198 223 246 196 196 208 240 241 212 200 215 223 200 237 246 225 224 222 235 213 212 208 251 239 220 241 247 248 237 247 246 242 215 238 243 218 253 229 203 210 234 225 240 239 206 230 210 235 199 253 195 218 207 251 201 232 238 195 226 
219 249 218 206 208 202 195 233 200 230 243 217 210 213 201 196 224 238 211 204 244 210 204 207 222 201 215 201 244 215 232 210 211 197 223 224 204 223 204 209 199 252 233 215 209 241 216 241 224 234 250 212 250 200 226 218 208 247 224 196 
208 201 213 224 205 241 195 214 211 204 231 215 202 208 235 217 255 197 202 225 237 198 242 233 203 213 195 218 206 225 221 219 233 240 249 243 225 251 203 241 199 239 203 206 253 243 230 254 246 239 223 229 244 211 206 254 229 206 216 242 
