P2
#imagem2.pgm
100 100
255
225 198 199 100 208 212 197 0 173 198 220 243 48 17 163 36 176 160 89 115 83 212 103 238 147 208 224 25 74 104 54 43 46 253 143 255 209 84 255 126 27 219 113 75 237 21 112 157 181 201 16 8 157 119 246 49 72 215 74 146 63 128 189 109 125 76 108 79 161 108 205 188 71 63 7 52 84 119 209 9 65 226 17 222 89 7 15 161 222 90 51 29 218 240 139 88 61 247 167 222 
99 116 154 171 179 161 223 7 25 177 16 90 147 33 56 236 41 72 142 7 162 193 37 124 178 176 212 239 167 123 205 11 240 103 182 163 8 149 171 33 70 187 123 217 221 180 198 6 252 84 13 158 21 50 26 199 226 239 182 138 106 131 149 90 234 75 254 243 224 169 20 39 100 144 0 65 68 198 71 64 26 85 222 48 135 248 247 106 231 174 244 82 49 137 172 28 212 170 15 180 
83 35 219 184 179 220 249 247 162 65 55 189 150 21 237 29 14 228 135 245 146 123 71 196 4 244 224 216 158 239 141 242 18 104 170 198 68 163 189 231 228 245 164 122 10 145 152 24 117 31 14 8 155 85 204 159 73 172 120 232 155 5 218 173 109 132 115 178 39 49 153 12 38 61 134 48 206 30 73 67 62 87 75 217 172 23 120 246 195 240 222 94 245 184 12 99 60 127 21 99 
176 174 111 214 235 246 7 185 20 80 252 82 167 72 43 83 95 164 73 35 148 39 129 138 223 141 237 27 13 2 127 189 176 238 148 155 228 155 84 249 235 80 75 146 152 119 229 248 27 47 27 175 86 156 57 54 42 38 81 55 40 208 244 216 191 136 115 163 35 199 156 14 24 232 160 176 95 134 168 122 181 195 41 11 96 99 65 138 137 147 193 178 99 181 138 34 62 254 198 97 
197 98 112 221 74 16 142 169 150 54 35 75 250 77 87 90 176 152 228 57 43 165 235 143 90 118 177 152 116 119 250 57 218 106 23 36 122 165 206 17 219 241 92 213 62 179 47 238 76 19 40 119 184 19 6 19 137 184 171 253 47 165 55 9 15 78 46 138 243 252 155 206 237 247 164 44 171 211 26 247 231 66 110 159 86 117 178 223 45 94 221 92 3 20 102 19 98 148 157 85 
144 56 35 125 47 199 169 218 155 196 209 130 6 64 33 92 181 212 60 226 50 25 62 53 45 164 72 143 56 229 228 200 29 7 70 77 207 239 39 106 179 249 236 186 57 13 22 238 225 82 208 19 107 14 73 152 179 145 39 235 119 11 180 148 19 250 225 226 233 9 76 157 2 56 87 59 69 109 41 39 192 249 58 43 7 131 196 186 21 235 166 140 247 90 32 10 84 2 236 61 
11 56 218 13 112 49 72 181 159 113 220 95 106 23 138 113 154 78 44 175 58 210 59 49 44 92 59 128 94 39 189 105 95 152 118 207 201 190 132 104 47 97 199 153 120 82 10 18 160 54 194 218 8 253 11 52 89 70 180 183 109 114 32 204 10 150 155 211 84 32 60 131 129 3 28 249 85 39 11 246 93 205 208 102 203 220 154 36 34 79 220 144 193 252 92 203 147 248 158 231 
24 218 107 153 222 135 146 51 174 157 41 12 107 250 114 54 214 12 90 248 91 54 136 28 51 229 231 198 221 134 173 245 96 24 142 62 160 32 114 78 189 155 90 40 149 204 94 107 217 185 100 52 239 236 81 34 209 56 232 174 190 150 163 31 174 49 93 78 81 207 157 15 107 247 55 0 196 150 108 157 79 208 209 62 188 34 97 142 91 73 60 25 223 224 56 142 17 150 220 99 
101 121 114 208 113 169 209 53 63 61 210 142 13 163 205 201 198 46 87 33 119 148 58 87 116 115 229 133 9 193 232 110 59 90 63 172 4 16 225 67 77 179 210 90 86 159 35 28 205 123 61 68 15 120 155 131 235 128 8 244 66 241 98 125 75 161 41 79 177 10 147 254 189 101 88 19 4 124 48 209 247 109 21 6 229 177 137 208 49 145 196 115 130 39 240 206 200 25 29 122 
35 176 120 224 21 209 244 25 77 36 234 68 145 0 74 119 177 211 71 226 100 12 86 231 51 70 181 251 96 210 117 131 131 238 100 152 191 88 178 12 124 156 80 13 156 154 132 77 109 204 48 209 216 134 184 11 204 109 6 44 64 124 176 195 106 20 91 41 108 13 53 232 170 133 245 70 31 122 148 140 70 196 93 30 74 22 41 22 131 47 67 195 171 243 134 21 7 226 62 115 
239 115 91 153 248 80 224 23 202 116 163 16 56 1 46 130 23 87 152 154 135 219 94 50 206 228 72 213 198 134 72 182 250 163 79 242 244 47 10 190 163 173 207 219 174 253 93 197 85 246 96 220 209 190 14 160 162 86 117 105 221 190 31 215 97 110 201 85 158 211 20 65 129 227 29 47 224 122 245 53 112 85 17 66 19 32 226 181 118 87 30 83 21 61 42 119 172 244 204 74 
199 224 139 72 195 168 120 164 35 109 217 147 194 235 213 213 11 183 138 129 15 169 213 36 230 255 155 146 243 104 220 187 72 104 3 12 16 123 176 51 232 137 199 170 116 156 127 127 84 10 1 99 179 214 135 153 213 35 44 201 139 8 132 211 112 135 223 129 3 143 180 235 25 123 150 141 24 21 13 108 31 14 207 210 228 86 108 185 121 152 130 4 160 6 216 17 142 183 146 145 
71 70 124 96 194 18 237 218 40 250 70 71 8 21 26 236 107 134 166 229 30 40 233 190 47 193 207 189 121 97 78 192 168 202 32 106 221 13 68 5 8 138 76 16 159 102 253 10 236 163 239 10 203 217 201 250 154 152 183 19 250 5 211 162 208 243 12 173 1 80 178 9 218 254 25 121 101 22 131 81 185 115 92 133 76 37 127 230 189 55 250 183 60 205 89 12 193 101 185 194 
181 107 203 143 106 228 8 207 251 140 32 180 255 124 57 75 161 185 49 95 240 43 22 44 249 112 57 186 213 242 124 139 94 71 26 200 43 35 151 38 175 183 219 174 52 20 249 213 205 42 52 189 86 75 234 79 187 35 9 144 21 133 27 115 204 54 59 247 89 210 30 8 138 249 182 190 13 175 147 219 217 200 152 47 19 130 126 206 165 135 94 187 12 122 46 216 176 106 208 9 
60 238 17 198 231 199 132 244 118 24 207 79 224 104 127 243 234 253 193 144 133 31 75 145 153 121 106 73 227 58 82 32 40 99 230 15 42 107 3 160 131 211 240 99 59 111 86 37 108 23 181 241 54 0 131 208 122 237 25 93 39 108 125 79 207 100 94 250 207 97 154 82 52 138 181 111 249 11 149 102 34 74 87 88 75 218 40 197 199 66 34 238 174 160 61 125 4 155 119 211 
253 18 37 49 156 218 161 150 229 54 252 7 128 83 95 203 46 136 144 245 202 179 228 120 83 33 245 87 189 109 42 186 127 79 235 27 41 140 177 14 194 173 21 67 1 116 14 47 252 159 36 198 82 8 62 165 42 52 252 231 161 38 161 32 117 140 59 158 25 237 172 219 154 193 30 155 53 45 202 50 204 239 248 30 247 55 195 33 107 191 8 12 229 169 44 90 54 103 248 79 
84 164 42 239 101 73 138 154 118 85 204 66 68 197 96 59 252 35 93 103 226 101 115 199 15 159 33 69 6 25 148 91 189 190 74 34 7 212 188 125 41 137 191 109 78 31 169 74 66 6 177 36 107 36 235 122 195 12 191 201 37 83 36 226 18 110 4 25 67 193 151 108 74 86 218 152 118 131 226 184 137 147 221 244 183 200 111 122 213 46 67 250 130 104 221 148 214 225 173 25 
162 68 134 236 155 96 132 17 227 102 201 108 249 166 96 176 111 207 42 68 254 110 62 128 214 27 20 172 253 193 198 159 6 76 140 161 172 16 178 143 119 123 251 112 34 91 33 145 43 75 213 41 185 19 169 143 47 189 60 44 126 2 203 132 78 87 37 250 104 215 137 223 83 132 79 117 223 112 6 10 188 219 51 117 238 220 5 29 153 65 73 24 67 21 156 145 108 194 139 212 
153 20 179 236 152 3 97 119 115 103 130 47 66 181 165 49 146 170 78 43 235 152 67 46 173 224 191 25 162 74 238 59 94 161 40 246 164 137 109 24 241 239 71 51 165 236 100 55 150 179 98 129 75 166 175 248 134 110 17 40 184 255 99 22 161 139 12 69 21 122 93 6 105 165 57 14 145 158 69 40 81 168 169 156 78 89 148 212 199 165 252 128 165 95 150 70 235 163 139 0 
29 233 6 134 142 63 149 31 221 218 71 46 130 241 202 208 74 94 164 17 4 160 145 169 0 40 239 235 203 122 235 232 99 241 110 241 48 3 17 14 222 88 60 96 73 7 49 147 101 213 165 105 118 54 18 118 94 1 97 41 124 76 17 223 61 128 209 109 131 226 123 97 58 184 194 132 191 243 23 36 200 188 142 62 243 160 180 81 162 21 123 30 97 140 253 158 12 206 12 144 
176 135 241 235 63 179 111 254 166 134 35 111 67 177 173 54 81 98 135 243 119 2 17 217 143 15 119 155 221 131 43 142 11 29 121 74 208 232 73 119 110 108 230 177 29 147 231 110 245 111 98 109 113 115 70 0 130 189 156 96 65 199 238 76 228 103 150 181 79 223 44 189 75 18 111 104 165 86 215 155 197 57 8 55 172 78 55 47 11 211 143 76 155 125 152 127 228 47 52 51 
14 96 240 90 114 95 194 24 182 153 179 123 210 187 178 127 9 234 174 20 189 61 97 88 186 249 216 158 40 12 209 55 109 193 145 223 33 83 247 215 237 170 82 191 101 5 62 110 239 236 131 172 41 228 5 227 221 221 129 6 233 82 61 86 20 206 54 53 33 45 12 14 216 94 206 61 99 12 172 82 249 47 255 34 19 4 6 240 225 135 246 202 218 51 33 238 1 87 35 35 
132 47 49 92 141 255 154 241 12 70 67 5 117 66 39 136 70 45 120 39 181 111 242 143 162 19 125 164 106 160 199 238 207 248 75 92 248 229 77 4 43 145 9 160 211 48 40 26 94 160 65 19 15 51 162 178 70 31 86 176 191 29 159 142 21 234 234 13 207 56 17 250 201 26 154 156 75 194 182 169 98 248 188 114 43 94 36 114 125 122 34 60 151 193 202 172 171 180 186 122 
236 203 116 181 230 14 82 49 208 8 218 51 0 150 165 44 244 201 158 113 67 192 173 218 130 119 134 45 43 64 168 24 12 28 205 242 43 31 35 251 40 253 46 40 147 211 84 135 156 242 248 223 179 165 185 53 28 64 98 71 128 10 95 140 39 45 126 82 76 161 77 116 158 124 157 49 79 241 184 236 228 176 203 151 85 133 204 113 197 46 185 69 57 24 210 96 69 80 178 146 
242 255 6 144 123 163 194 203 149 122 183 121 43 130 16 128 7 220 242 204 10 171 18 67 195 228 163 9 52 85 155 38 85 161 183 208 69 121 155 218 243 82 83 30 213 99 159 220 63 145 169 73 60 187 141 255 159 48 8 211 134 163 250 219 69 177 171 138 42 71 100 29 153 183 60 110 26 219 75 89 108 244 162 168 175 47 167 78 96 176 33 230 83 27 193 152 204 108 34 246 
179 134 20 77 61 80 187 87 43 6 176 151 250 83 63 169 130 230 247 226 150 25 200 234 52 137 130 1 246 165 247 169 43 11 246 105 91 178 192 134 184 113 29 179 196 92 92 70 67 84 41 217 109 241 195 161 123 70 162 113 235 154 26 22 165 17 127 1 195 64 135 123 177 165 46 117 1 139 187 68 223 228 30 76 214 225 237 81 39 144 194 18 42 220 41 207 237 168 208 176 
232 88 44 153 253 90 14 254 229 202 67 196 174 97 16 132 66 254 213 106 142 151 124 184 116 165 135 97 78 88 18 54 176 62 208 173 152 222 171 126 168 238 66 87 79 83 219 146 81 177 252 223 72 120 151 188 30 30 30 108 118 48 162 38 110 114 211 6 81 127 132 249 109 199 80 189 26 44 79 107 221 75 74 37 195 225 226 225 255 0 77 118 48 240 156 158 98 112 164 179 
239 41 173 92 240 253 25 10 41 104 117 6 179 191 44 119 160 14 88 159 14 166 21 62 150 178 220 248 34 128 172 17 169 89 109 153 86 135 163 128 239 24 134 163 215 178 26 119 192 114 23 206 24 44 12 174 222 232 167 0 105 83 17 18 172 127 172 2 6 79 130 245 104 9 152 63 187 178 183 124 37 206 74 61 250 87 236 217 63 147 217 168 230 235 187 146 106 103 148 112 
182 23 101 30 32 254 94 219 176 21 87 213 227 162 19 221 249 255 182 56 146 144 225 120 123 156 10 229 3 158 85 185 181 186 216 213 184 54 177 105 75 8 62 46 170 81 11 163 80 194 220 226 82 189 90 205 89 100 178 92 3 7 21 184 193 237 142 122 35 63 227 110 71 33 156 242 115 168 149 195 106 113 166 188 46 0 137 135 101 59 227 104 66 249 32 3 230 174 125 10 
237 96 120 53 130 21 39 245 189 188 184 39 46 94 227 92 95 108 228 196 167 199 44 233 192 76 236 167 251 106 177 232 202 41 29 76 62 68 65 251 1 250 34 47 88 5 139 183 113 111 123 24 55 167 1 247 244 238 158 239 88 79 215 34 121 245 111 183 57 176 179 58 170 213 105 3 219 245 186 76 100 54 101 155 221 102 147 209 84 49 192 172 129 152 207 250 141 62 177 198 
238 100 1 153 58 106 156 21 95 86 97 196 140 198 95 106 45 242 59 129 36 252 46 165 148 253 159 33 59 80 231 41 181 232 194 239 83 94 4 178 181 101 118 65 44 214 171 89 200 231 218 236 227 8 145 119 5 48 152 64 129 127 106 54 104 44 37 187 139 41 109 64 142 228 129 186 186 45 19 130 20 238 111 247 246 0 110 252 49 6 60 178 133 166 232 237 211 13 168 94 
54 22 158 196 250 31 127 180 76 146 54 96 128 165 87 119 166 197 115 215 203 175 137 81 86 113 62 41 126 231 135 180 253 37 120 247 68 247 171 145 138 225 241 10 135 73 129 45 14 244 4 218 164 141 43 250 254 105 35 124 80 170 48 77 207 168 68 19 160 239 164 42 209 150 52 88 223 182 133 237 170 137 199 78 22 242 72 20 92 107 144 172 21 192 250 228 104 62 248 8 
46 156 50 255 50 103 87 17 29 220 255 199 101 198 22 123 185 94 143 21 202 31 193 223 223 187 196 71 250 188 80 40 88 130 39 139 233 126 156 6 90 155 206 191 98 228 58 27 66 201 48 12 232 241 236 199 173 176 14 167 108 94 207 196 225 246 79 202 116 236 209 206 135 159 141 233 131 199 4 197 144 52 210 120 38 190 63 211 110 77 122 218 172 73 158 141 63 238 87 179 
218 40 129 97 199 14 75 74 213 79 16 101 132 226 221 170 160 28 125 14 105 247 232 21 64 134 162 127 116 250 50 78 34 179 176 234 193 251 52 150 74 68 251 206 38 216 120 198 244 245 212 93 236 188 115 44 67 21 171 183 15 221 6 50 144 182 28 81 177 80 231 251 149 226 202 187 186 66 130 174 56 86 12 36 19 127 81 86 148 252 13 164 218 19 214 106 201 242 188 122 
66 163 118 215 134 64 147 64 130 21 239 186 107 251 223 126 122 48 212 14 44 226 178 6 245 136 113 191 122 45 57 189 208 175 148 86 239 39 151 114 60 134 44 168 129 11 38 251 59 251 9 104 221 188 110 210 68 223 145 191 12 203 124 221 122 16 51 106 56 202 220 116 80 8 28 209 20 67 204 79 62 214 183 27 146 38 237 214 5 127 149 18 74 17 239 196 34 34 46 90 
237 10 206 61 19 235 15 39 46 219 118 108 177 46 135 67 84 116 26 89 243 175 107 61 193 90 2 227 125 48 61 106 59 11 167 78 246 182 117 36 146 235 144 67 25 23 135 109 140 161 199 127 80 50 189 17 141 191 244 10 239 49 116 42 61 27 120 51 210 237 88 100 217 232 167 242 0 46 96 140 207 39 11 32 89 200 49 230 135 38 240 119 87 100 161 148 128 26 200 82 
7 32 182 224 8 93 211 8 140 51 148 91 90 160 123 179 104 173 154 240 211 138 103 42 239 8 191 111 34 135 193 42 167 119 10 175 212 221 184 96 16 76 188 106 236 55 30 85 228 184 69 183 66 172 226 49 180 161 160 215 40 97 1 207 216 11 126 173 233 54 13 249 131 201 100 111 1 130 196 229 58 9 157 124 181 127 174 106 32 78 65 72 176 66 23 136 77 149 53 54 
204 67 48 79 12 148 190 13 22 131 243 80 140 144 204 66 15 122 172 47 201 237 119 121 47 142 1 124 35 55 179 239 122 227 62 134 119 253 148 141 128 135 221 12 23 169 78 38 36 250 85 237 231 204 102 22 90 103 147 125 158 70 109 24 41 171 159 160 168 51 45 40 186 10 53 209 179 131 247 215 126 76 196 101 24 42 124 114 146 15 239 48 85 92 73 126 8 232 30 176 
27 75 217 213 85 14 166 8 145 157 224 15 233 164 117 1 207 241 115 97 0 98 145 85 191 218 211 199 194 241 119 221 60 80 178 145 94 88 153 240 245 121 255 222 30 116 223 237 101 82 78 101 181 223 186 116 186 141 59 124 126 178 90 186 3 12 75 97 101 229 81 90 94 81 57 124 197 24 105 43 107 183 144 32 151 75 148 81 216 207 205 87 129 39 17 132 52 93 230 153 
66 55 243 160 136 44 29 78 69 134 121 176 62 9 208 213 84 100 38 45 51 243 132 180 27 149 57 79 242 31 232 52 86 219 213 223 8 242 45 77 120 166 253 182 175 205 139 4 49 177 49 100 165 181 24 192 74 81 15 61 112 247 113 199 210 70 166 218 56 211 39 177 121 36 103 40 241 243 44 34 164 93 134 73 18 159 9 93 240 24 154 97 15 11 40 226 82 206 188 138 
161 228 59 26 8 163 66 250 150 111 28 58 204 163 132 223 66 141 60 50 166 214 147 181 225 187 151 51 137 84 190 42 56 249 68 64 156 135 58 50 246 87 109 194 250 241 161 60 126 221 110 36 179 2 218 149 189 113 200 71 197 134 113 253 128 182 62 28 61 120 79 51 207 188 245 201 173 151 5 43 116 116 80 40 118 42 189 51 155 133 122 97 12 236 94 140 162 156 168 223 
21 247 18 228 179 7 174 96 158 179 140 19 39 220 59 157 6 248 209 161 125 75 2 137 55 97 21 217 253 190 184 18 181 202 247 105 210 165 201 112 88 85 131 128 49 190 29 55 182 238 217 52 58 219 189 113 60 211 75 58 145 3 76 70 206 67 175 160 232 121 16 65 206 148 193 0 82 222 55 9 205 16 61 7 236 250 120 40 205 195 98 94 199 175 165 149 242 84 53 219 
205 69 28 156 217 221 156 44 187 211 53 136 228 114 143 208 108 8 248 58 203 91 152 146 10 61 39 252 146 92 215 95 162 243 251 123 208 151 167 140 107 220 20 79 78 164 31 187 172 23 245 119 114 141 10 124 203 49 121 93 142 80 188 48 68 184 171 20 79 83 160 186 47 181 9 126 89 40 57 5 64 46 124 178 187 134 47 134 184 168 227 70 248 160 118 60 88 33 81 167 
116 241 98 164 166 107 34 255 148 91 4 212 137 129 134 68 7 181 203 191 93 174 5 86 78 123 146 166 157 227 78 17 213 176 181 123 27 215 123 175 50 127 131 187 0 10 0 8 191 203 199 29 121 205 115 200 72 5 110 229 233 188 247 190 108 172 57 136 132 180 55 182 52 187 114 52 197 114 60 132 61 4 161 182 209 20 126 25 26 237 255 3 169 246 193 22 162 250 158 38 
175 213 221 227 144 79 23 85 193 84 218 254 88 123 180 41 144 51 66 170 32 65 173 201 55 110 223 218 104 125 0 23 83 221 250 227 44 18 57 237 102 19 235 190 142 160 231 30 211 41 200 243 107 117 188 162 227 156 124 76 25 125 99 108 90 94 80 135 112 137 116 214 156 96 148 42 0 123 73 211 164 17 198 15 135 130 178 106 30 46 182 56 171 26 164 6 120 244 141 232 
125 1 190 25 97 82 68 97 205 141 52 113 158 250 129 37 125 51 144 155 97 70 211 13 96 120 19 216 108 160 192 234 161 126 3 3 208 71 100 157 212 153 15 115 147 144 152 16 195 40 172 36 111 127 49 207 247 68 168 100 228 104 78 134 231 81 137 183 153 237 85 109 134 100 224 26 244 121 42 183 161 214 219 16 86 13 224 77 81 136 177 54 240 255 188 215 81 69 143 234 
50 228 87 185 72 56 211 60 177 253 243 82 212 206 99 42 219 67 119 45 203 41 99 187 40 31 147 121 100 34 99 150 6 187 79 78 243 34 138 164 32 125 246 244 75 89 30 39 156 149 84 103 190 183 35 231 214 182 96 58 216 196 208 222 127 32 44 114 66 182 22 98 51 12 86 126 102 116 165 2 10 249 106 200 176 141 175 134 67 16 192 27 212 145 249 83 177 37 197 243 
219 219 86 14 231 172 140 77 33 50 80 43 43 186 243 220 71 163 98 138 179 35 165 135 180 158 218 101 195 159 88 158 122 174 172 97 91 56 175 124 106 255 167 150 185 154 114 0 61 212 138 240 247 47 119 171 205 81 16 144 240 105 46 106 23 218 204 114 18 123 238 125 122 149 19 51 48 133 51 109 89 189 94 81 236 213 252 185 39 13 73 23 118 119 130 141 81 78 0 99 
201 238 224 67 132 243 118 180 120 169 33 210 102 127 35 82 85 31 11 124 44 84 147 162 203 21 48 28 99 48 127 44 30 96 111 162 83 229 86 204 142 120 158 244 247 193 70 76 224 81 200 13 165 92 175 112 113 223 140 213 15 12 1 46 108 113 208 191 86 39 139 229 159 41 217 150 234 32 227 203 113 171 216 23 7 135 135 121 103 20 78 118 32 79 164 140 192 117 75 23 
156 215 252 59 0 213 209 235 245 180 182 103 96 142 126 103 21 5 224 124 25 46 243 57 126 151 197 62 12 17 85 168 232 81 227 232 39 181 211 28 105 137 131 201 23 1 49 45 7 17 169 32 64 156 90 190 52 31 252 64 48 82 233 24 163 204 1 202 129 212 231 235 94 106 180 117 108 229 162 115 247 76 147 55 232 237 245 28 13 241 93 61 67 70 86 231 18 87 177 148 
43 152 127 137 3 51 255 111 25 161 226 16 237 117 71 214 99 60 242 112 45 79 173 113 149 3 88 168 90 9 60 134 162 187 15 165 238 14 20 7 176 246 23 157 107 94 115 206 154 102 62 200 181 236 57 75 239 145 243 74 154 47 208 60 234 223 225 216 238 245 224 158 235 247 59 87 86 175 37 240 21 100 184 202 80 241 21 63 130 8 137 29 55 89 89 33 57 59 250 39 
48 218 197 28 209 0 115 39 175 152 24 196 252 208 143 76 194 164 140 68 173 21 97 228 111 187 6 168 246 0 207 38 218 148 66 171 148 181 211 68 78 235 8 74 187 151 151 125 60 35 194 233 56 35 205 167 222 211 79 212 211 30 251 173 178 61 89 71 243 44 139 65 23 147 139 210 43 34 80 103 69 18 80 126 53 29 37 20 241 117 232 196 147 227 114 70 33 203 141 20 
247 24 85 14 171 224 224 214 3 48 61 72 66 141 198 120 171 236 140 156 97 116 96 244 88 210 58 121 157 199 141 148 223 226 162 139 194 131 97 197 179 159 14 246 44 212 110 215 192 250 115 33 110 212 22 198 166 80 63 68 24 204 216 247 174 123 130 113 254 228 54 177 131 68 167 175 25 21 135 217 15 250 251 126 206 17 68 117 97 132 185 121 80 145 113 255 12 243 112 10 
215 166 188 90 235 99 10 4 121 145 221 136 139 216 6 90 233 75 207 75 207 136 196 31 25 53 30 38 41 142 48 0 53 236 91 32 80 101 36 201 246 1 81 129 218 88 219 195 163 170 14 114 50 211 145 76 8 176 114 49 62 162 50 115 143 141 147 223 242 183 168 232 185 249 105 147 81 69 86 244 239 101 102 34 56 248 110 64 168 224 114 230 130 164 90 17 49 237 240 35 
165 152 11 94 146 116 241 227 185 71 216 169 172 62 203 228 54 57 37 222 25 151 197 155 59 31 173 108 12 157 143 177 54 154 15 200 14 0 171 200 72 131 113 244 194 60 217 248 117 254 215 142 149 156 41 208 187 214 60 199 116 203 121 170 101 136 114 115 137 29 59 209 161 172 197 99 232 158 91 93 156 50 235 49 206 21 1 137 235 61 81 95 8 202 9 109 82 123 225 219 
153 28 172 58 201 114 157 177 16 248 15 173 43 250 222 249 15 224 131 251 29 212 90 38 158 100 147 240 223 116 204 120 145 120 178 90 234 79 11 251 72 26 168 115 21 134 108 36 102 239 31 132 195 122 170 97 222 61 82 189 178 30 54 67 150 232 157 129 56 168 124 128 195 36 243 216 170 95 252 17 79 28 149 18 150 63 116 116 124 198 49 46 228 103 113 122 80 14 251 136 
183 119 8 122 155 251 82 70 90 78 87 169 106 236 188 0 43 48 116 167 246 166 214 218 13 71 84 93 86 80 229 13 199 237 135 99 232 217 169 67 39 0 236 146 236 168 146 23 216 7 190 206 173 148 168 186 220 253 24 50 77 253 63 20 235 198 119 211 159 32 22 198 32 3 88 12 171 235 35 132 242 226 82 159 118 251 89 82 248 113 132 69 111 195 89 90 137 209 45 40 
241 68 239 18 71 71 30 242 50 66 118 36 36 201 195 154 196 29 237 188 142 113 1 253 53 90 87 190 43 133 231 29 201 214 47 16 29 77 2 80 143 121 116 179 66 56 78 6 85 59 194 227 172 195 225 225 29 56 160 73 189 135 102 134 93 149 150 122 226 153 202 114 18 63 37 84 119 115 90 204 174 28 175 91 223 144 60 252 201 220 69 134 99 171 13 192 64 163 59 35 
60 5 149 78 68 186 162 187 46 252 135 220 24 55 55 247 199 116 244 144 80 57 23 180 229 36 116 37 199 175 72 4 181 221 82 249 152 245 181 198 241 60 162 10 115 218 1 59 78 245 203 158 47 226 82 20 6 199 57 206 118 130 210 43 95 36 37 247 25 218 189 11 22 96 21 138 58 22 197 136 12 144 38 59 115 121 79 121 64 136 71 182 10 25 226 106 62 7 97 87 
225 31 98 247 127 119 129 185 142 70 65 154 215 103 213 74 224 36 195 32 172 11 215 183 36 185 33 98 192 130 186 161 161 28 152 32 148 26 217 34 96 26 188 55 130 145 129 98 181 69 131 97 80 90 24 116 19 57 215 211 188 145 116 93 173 12 126 65 38 87 99 135 114 31 190 244 176 64 86 101 133 217 199 213 51 223 73 70 25 32 25 213 177 141 50 95 154 176 160 192 
8 4 71 122 35 6 110 212 70 196 57 203 158 0 160 209 224 233 24 249 10 49 206 187 191 0 26 89 177 187 25 185 191 97 51 226 103 161 182 173 101 240 120 3 240 24 213 208 1 237 201 11 30 151 199 221 152 225 54 73 156 80 2 91 177 53 62 24 214 244 197 59 228 61 63 213 85 20 165 86 1 111 98 31 6 41 253 158 10 51 231 167 131 233 2 52 30 64 76 244 
53 17 48 25 78 111 238 163 131 148 250 132 3 92 163 9 133 160 168 143 212 143 54 87 121 57 140 151 121 216 140 174 234 188 200 56 43 182 220 174 74 214 50 77 50 213 87 183 118 255 70 74 142 125 161 7 182 45 159 47 6 43 222 240 231 166 40 18 92 4 192 167 218 242 244 12 199 75 195 61 74 10 135 217 135 41 224 61 86 127 108 92 170 74 76 145 240 117 163 77 
121 99 244 84 85 232 96 29 52 36 90 126 46 226 87 181 11 56 242 97 183 94 190 98 169 10 243 153 127 151 230 249 250 218 77 80 195 173 109 247 209 199 117 255 169 205 180 180 5 166 22 188 5 212 30 174 222 18 71 94 169 46 87 163 8 164 243 203 81 96 194 35 40 56 34 209 5 215 134 10 125 156 198 130 112 229 48 78 247 120 172 160 166 3 67 174 167 55 122 249 
151 60 28 191 116 62 145 121 21 23 131 147 179 74 21 35 47 70 113 38 190 30 198 100 33 9 18 201 64 140 194 216 201 222 151 61 28 40 183 50 63 58 197 242 132 218 21 179 32 135 217 222 165 159 66 198 169 85 143 233 225 81 193 170 47 89 232 76 129 159 126 193 217 67 179 94 29 201 17 62 80 235 28 245 138 95 187 51 180 75 29 149 156 222 64 204 55 40 24 185 
199 150 122 160 217 45 254 246 246 16 52 70 251 81 59 133 176 247 185 100 66 214 249 222 180 57 170 236 97 194 165 40 88 31 201 49 76 199 40 67 215 92 137 210 173 197 88 93 188 17 193 254 231 187 220 155 244 135 135 86 73 44 126 162 75 71 211 152 15 251 219 230 88 100 185 5 41 17 99 229 34 36 227 9 223 192 164 212 71 44 42 144 88 168 50 164 240 6 60 255 
1 23 229 89 123 158 95 165 175 194 138 209 230 110 218 198 46 127 154 117 171 196 5 3 108 56 167 92 62 227 91 63 250 65 153 118 223 248 27 143 186 165 96 160 19 59 102 65 186 0 182 101 196 188 104 49 244 16 141 50 243 233 113 238 42 10 100 9 2 127 152 188 36 249 93 56 52 195 121 238 196 48 83 136 236 187 185 224 203 71 18 191 48 131 173 90 142 17 99 144 
144 252 77 180 245 170 236 41 109 102 23 49 150 106 186 130 37 115 98 241 186 116 176 234 247 93 68 133 110 168 22 254 164 99 178 153 13 159 194 122 5 217 172 155 67 102 29 104 217 127 89 148 243 9 126 234 102 195 112 212 107 134 210 15 233 133 168 246 36 106 112 41 67 28 196 134 130 225 238 92 96 72 240 83 81 110 61 184 49 173 140 156 51 95 171 28 228 83 18 8 
189 131 49 0 159 245 134 34 214 117 126 54 189 110 137 14 220 198 198 14 116 83 170 167 178 86 196 150 169 214 158 103 89 207 103 249 196 238 27 154 99 153 208 32 7 89 46 227 31 245 241 147 72 156 59 250 242 255 144 155 213 46 2 47 253 106 40 193 88 67 91 187 220 43 219 227 132 9 198 163 254 184 55 70 84 114 64 70 113 208 225 70 254 228 117 251 78 157 188 166 
224 23 97 188 66 60 159 198 69 102 106 68 30 161 138 114 19 203 184 132 155 153 202 154 125 64 149 203 221 82 113 190 105 210 122 172 14 26 114 84 128 220 152 158 125 34 16 144 237 200 20 137 97 223 35 223 31 184 170 252 10 28 186 116 238 53 32 253 79 146 81 207 111 233 109 236 11 125 125 249 69 145 130 166 112 165 133 143 93 48 140 104 76 70 220 58 123 252 55 202 
142 136 153 253 113 6 234 125 131 103 118 200 248 248 111 105 157 244 248 250 36 132 98 112 203 62 171 70 58 226 17 201 107 170 198 220 177 176 89 52 23 207 253 16 199 108 121 100 96 113 95 133 246 193 245 193 0 160 7 58 131 24 3 238 195 202 202 116 122 36 168 146 243 165 162 187 17 27 31 114 140 126 247 130 64 236 67 64 141 75 122 16 99 126 254 38 72 200 154 194 
236 67 84 224 232 246 155 250 17 186 108 158 57 99 32 121 79 100 185 220 175 51 236 18 177 234 57 249 179 211 188 159 22 16 127 255 7 26 249 24 213 101 182 14 200 215 135 23 59 64 244 234 115 224 252 37 203 53 30 126 9 218 29 31 235 157 30 242 183 23 10 140 124 193 154 68 152 33 92 211 97 80 189 213 48 185 250 251 239 24 121 248 243 151 23 222 52 54 208 235 
77 218 120 202 155 18 14 51 52 106 6 149 186 195 106 235 125 100 230 108 125 96 100 112 247 123 78 43 177 30 22 255 248 142 201 148 161 215 199 213 66 206 106 252 145 213 231 14 57 206 122 182 46 222 38 37 90 116 80 11 146 102 10 139 245 211 31 150 171 230 107 237 180 213 233 70 170 209 84 228 159 207 154 205 173 193 242 7 53 66 19 200 168 29 83 157 241 114 51 156 
88 158 137 13 116 114 83 30 67 167 2 226 118 157 175 36 94 161 43 147 227 62 91 140 92 174 41 77 32 93 233 121 251 114 134 111 228 217 142 40 128 144 10 247 45 186 27 139 91 70 31 63 133 122 203 225 41 244 46 73 81 23 194 77 137 72 188 109 33 74 149 162 219 160 153 8 90 180 148 181 250 179 244 127 45 191 96 86 180 142 160 5 165 98 82 46 171 15 156 204 
89 49 110 52 209 7 61 43 187 209 225 182 132 213 53 177 149 150 8 73 36 168 78 202 10 161 248 181 176 148 130 9 198 240 62 151 248 123 195 179 76 164 105 208 121 159 129 14 53 137 87 89 49 166 35 60 71 28 241 247 176 115 0 118 100 62 14 92 185 209 15 5 117 121 213 238 24 87 253 77 224 84 166 18 250 202 78 65 230 63 56 150 179 57 13 23 119 27 115 49 
236 130 54 97 251 12 79 19 99 76 96 67 161 7 85 155 209 163 221 183 227 21 77 150 78 90 173 198 117 32 247 97 162 45 194 158 57 18 177 156 94 18 224 255 25 53 155 234 217 120 161 188 141 238 82 220 73 255 162 190 31 153 32 193 198 226 95 0 244 17 156 83 35 124 82 60 178 237 38 139 101 199 71 243 181 153 207 254 152 113 189 183 10 221 120 208 191 216 208 180 
233 109 7 12 233 89 72 155 71 110 38 172 53 109 159 234 6 110 233 158 223 166 85 233 131 206 186 66 166 138 246 143 247 253 155 225 87 227 124 158 81 163 74 134 16 234 112 23 88 89 181 56 255 11 33 130 217 219 197 127 102 187 14 93 185 169 62 16 140 187 174 221 94 248 99 110 226 211 133 59 45 59 115 44 70 148 175 31 112 116 158 214 47 172 51 232 85 114 248 225 
45 166 190 139 159 33 249 129 244 127 188 33 186 47 78 0 196 253 31 52 113 189 10 160 105 61 137 190 175 129 159 220 40 93 103 199 126 97 72 114 224 5 148 154 52 226 154 248 223 185 44 80 118 54 240 223 116 121 157 35 251 60 0 35 153 103 234 23 200 50 137 168 55 29 66 108 255 220 100 222 149 145 46 11 199 31 234 59 152 135 95 147 195 95 182 92 198 160 115 143 
211 253 55 10 26 122 118 26 86 219 248 236 108 39 247 51 70 226 111 222 105 206 114 45 45 40 137 243 201 253 130 156 250 186 166 20 52 29 46 138 248 39 118 100 78 110 151 148 80 6 114 185 212 228 230 1 13 112 245 214 109 119 114 103 49 24 123 101 53 170 240 45 209 102 145 31 212 41 179 36 47 37 222 4 10 196 5 23 52 250 237 161 114 95 8 163 119 132 9 173 
46 249 218 255 95 108 30 52 149 209 88 196 246 54 200 0 251 206 23 47 200 4 209 58 99 217 222 219 93 231 136 139 224 98 138 63 206 168 115 99 121 204 40 112 2 240 112 253 190 136 45 135 140 254 193 240 215 159 203 53 134 83 192 102 181 75 166 132 243 25 231 109 229 15 221 232 0 77 229 190 213 18 69 98 16 7 82 232 166 29 29 45 112 221 147 37 40 57 169 28 
83 145 137 56 160 102 32 160 179 6 95 137 24 164 235 41 171 61 17 82 90 46 127 202 11 18 239 52 76 153 80 159 42 217 215 202 63 248 107 242 254 202 123 22 110 102 63 26 163 80 108 253 126 235 199 138 253 183 190 73 80 14 232 122 231 192 68 38 184 175 24 182 121 148 204 232 250 12 2 158 92 110 155 219 89 99 101 86 26 35 160 106 49 136 228 24 72 40 62 0 
216 86 182 81 234 131 57 229 143 59 131 235 169 30 198 2 129 43 89 155 78 249 5 127 129 233 151 202 18 213 202 234 44 129 59 22 4 117 251 147 176 126 126 90 157 69 92 30 112 181 186 191 174 191 62 48 169 214 250 187 171 196 165 215 69 224 238 73 85 233 220 6 104 91 96 5 160 188 35 16 114 221 207 32 157 14 80 70 228 74 1 143 15 166 103 84 134 85 158 220 
62 122 226 166 213 66 171 117 254 207 134 112 172 85 145 73 99 225 143 71 44 144 215 59 54 62 143 189 147 45 153 209 168 123 120 125 189 35 243 187 242 121 44 159 206 189 232 50 158 120 121 202 8 80 5 63 142 149 252 33 194 149 243 106 16 107 232 205 142 219 136 129 84 180 32 34 113 8 84 16 128 206 218 137 30 224 200 173 117 196 206 55 89 193 162 105 44 138 54 187 
101 190 60 185 115 92 219 228 100 48 244 229 254 207 110 28 175 54 201 36 250 152 91 83 89 253 188 134 135 242 65 236 176 125 165 35 217 129 8 61 177 252 34 175 203 144 203 122 198 149 158 192 45 250 19 134 247 207 12 127 193 77 107 114 202 17 149 163 146 157 225 67 154 3 242 101 148 189 224 90 82 126 27 127 120 46 6 112 254 18 239 191 96 90 49 42 107 199 206 253 
100 175 64 254 178 50 100 70 240 68 161 66 194 188 194 59 234 200 171 232 218 154 168 58 244 217 101 96 160 51 93 5 226 158 3 148 208 103 219 192 171 124 3 110 56 197 169 34 141 84 11 103 238 179 162 226 140 7 66 45 58 160 50 28 62 53 176 14 157 139 207 72 7 210 182 63 151 95 98 36 179 109 139 161 32 45 132 172 52 198 217 110 102 11 138 164 65 59 179 222 
198 130 38 206 84 221 13 235 60 111 15 240 220 154 145 252 200 21 169 252 220 130 107 66 142 245 231 207 48 154 173 247 28 211 197 112 176 210 91 237 66 106 221 30 4 110 27 204 132 196 201 96 70 52 162 212 41 137 163 90 35 80 81 63 36 22 175 212 232 10 193 42 116 158 73 121 13 100 69 145 40 14 241 110 66 147 67 108 29 230 198 64 55 23 128 91 45 47 47 21 
58 241 64 174 143 137 39 156 237 109 45 21 123 30 131 190 178 198 42 207 173 240 15 228 7 143 63 52 191 110 73 249 95 137 167 239 18 207 139 255 60 185 20 183 215 152 117 137 94 159 88 11 143 104 239 150 247 46 202 182 157 20 175 252 157 87 235 176 38 119 175 98 48 196 25 7 92 143 145 186 46 233 198 190 81 181 84 73 228 31 255 129 51 175 125 208 6 105 128 44 
224 48 142 16 244 167 23 80 54 168 10 101 146 208 35 227 134 119 44 106 150 44 235 201 219 104 154 225 209 26 13 177 74 155 193 62 66 217 142 121 129 153 222 19 105 1 247 239 120 35 89 15 79 68 216 42 173 114 11 126 141 24 48 215 179 241 22 246 202 164 111 76 61 77 95 167 78 86 150 198 122 240 213 201 52 174 244 225 32 255 96 173 24 144 133 203 129 155 193 76 
63 48 152 125 125 247 36 203 78 186 146 200 170 103 145 223 21 133 192 54 133 32 227 157 176 104 104 50 3 42 126 67 90 22 192 216 13 228 163 91 158 53 35 73 157 181 40 178 58 232 232 191 9 204 92 185 52 197 235 56 239 105 123 73 127 59 33 141 31 197 232 189 250 12 6 151 193 46 74 251 23 50 187 32 254 23 217 51 220 197 107 203 46 230 21 174 33 54 59 64 
251 35 253 246 47 4 141 240 50 215 236 73 10 167 105 8 190 67 59 155 8 166 102 54 140 123 228 173 178 31 237 173 67 235 163 114 239 49 99 33 8 79 107 18 246 212 27 180 23 86 79 31 253 182 86 137 49 58 55 227 90 36 145 157 15 52 15 254 101 114 32 110 193 139 128 183 95 155 108 119 242 187 150 239 113 236 120 163 39 175 134 129 212 23 30 227 76 45 226 177 
160 2 31 97 141 160 25 236 59 133 99 45 64 250 28 178 230 149 85 13 68 219 142 24 243 172 252 63 218 222 240 122 224 16 219 109 176 244 89 235 121 189 25 186 183 53 108 157 202 193 171 15 156 57 39 143 230 35 206 192 1 191 58 225 207 21 78 127 10 168 106 131 101 131 61 28 185 169 185 131 106 100 146 7 158 186 150 132 221 101 68 223 36 126 192 243 147 15 114 157 
183 220 33 28 96 94 56 25 8 241 156 114 86 47 121 244 233 16 120 198 117 188 165 153 58 102 140 205 117 254 107 44 218 140 72 58 234 128 83 242 113 240 101 199 31 222 187 8 238 51 206 99 239 116 252 41 218 136 247 79 134 98 123 97 238 195 155 216 67 239 203 180 223 48 124 254 14 55 6 253 107 212 96 90 72 93 132 34 229 123 113 108 221 236 205 203 175 104 163 242 
87 110 167 54 158 35 52 173 90 58 170 197 15 10 32 87 103 164 122 77 31 235 185 252 216 134 199 135 238 106 122 70 217 33 124 119 68 177 36 158 235 206 100 250 217 132 82 64 40 204 141 71 183 70 67 143 204 10 23 187 116 145 1 77 178 125 197 246 46 233 148 26 184 248 20 145 124 102 209 164 50 95 235 234 165 46 121 114 56 144 45 173 33 46 250 211 171 191 201 218 
169 94 244 97 86 8 242 211 111 195 119 161 34 99 139 200 145 5 58 202 149 103 119 183 149 113 138 64 49 84 26 218 178 14 59 8 23 45 219 134 240 83 39 19 182 179 219 71 184 21 17 77 124 136 4 17 250 143 81 43 227 108 5 149 122 64 157 145 109 121 23 93 204 63 112 130 242 75 201 170 96 219 247 220 99 252 237 93 139 63 136 110 171 141 3 37 205 160 183 58 
25 206 152 229 13 8 103 255 84 49 169 180 12 161 145 111 157 126 205 40 189 85 150 104 227 153 142 176 57 69 235 83 19 131 56 33 139 160 32 223 209 202 148 221 107 37 76 8 163 25 48 97 111 198 201 82 95 87 2 152 156 237 235 176 112 36 209 252 196 241 219 149 187 111 114 38 148 190 46 56 216 94 153 71 36 98 153 131 186 155 28 86 137 7 6 249 43 215 245 239 
201 209 132 132 64 246 171 213 181 217 13 141 56 166 212 92 8 109 224 194 8 252 25 145 3 31 139 47 247 128 30 192 81 163 68 146 153 239 103 78 201 116 219 1 26 175 93 34 28 61 229 37 57 254 182 61 29 65 108 20 194 138 212 19 45 25 165 199 8 12 21 209 128 241 210 154 160 48 189 189 109 162 226 167 160 152 228 189 218 80 210 156 218 166 175 8 191 85 207 200 
97 228 153 226 213 108 124 118 156 57 51 9 219 21 176 123 173 148 57 135 228 11 35 191 177 211 199 113 40 150 57 137 122 210 107 80 62 232 198 218 33 249 228 253 14 148 120 187 41 177 67 13 188 102 204 110 57 147 223 97 41 24 235 164 234 86 244 41 62 186 3 96 179 231 93 193 124 213 124 165 135 191 178 67 38 127 177 95 18 144 193 60 168 172 224 147 2 212 188 65 
142 191 161 65 167 254 2 35 211 126 200 90 62 122 158 100 249 79 195 12 224 132 72 136 48 40 27 51 252 215 116 138 151 21 203 62 19 205 97 230 75 41 65 137 163 223 237 157 46 177 169 14 53 241 151 102 25 178 153 21 138 13 159 33 34 106 95 53 55 192 27 130 233 92 12 140 59 249 41 106 170 210 120 224 195 15 70 220 194 223 241 76 236 144 109 14 250 204 67 49 
140 94 180 117 187 192 1 246 185 43 96 100 253 217 68 193 232 138 157 170 105 143 246 85 31 99 99 26 47 166 75 187 4 255 48 191 191 50 182 121 93 22 221 90 239 33 27 216 171 185 130 20 72 121 105 103 220 204 129 12 114 205 199 118 204 248 54 140 42 236 5 135 2 226 225 242 3 253 202 174 182 76 194 254 197 43 101 162 247 231 174 105 180 117 223 128 109 21 12 151 
1 17 30 4 243 0 246 246 253 192 164 179 12 102 177 210 145 22 116 136 253 34 241 177 151 209 50 5 230 62 156 232 80 187 236 67 187 226 58 184 162 222 107 174 69 28 128 214 50 244 95 48 22 80 225 174 33 19 179 8 82 79 240 162 10 220 229 197 190 31 125 96 254 232 14 67 4 143 25 55 131 120 103 154 201 72 72 234 92 251 242 174 74 226 80 85 190 53 26 124 
85 152 220 83 128 235 150 133 122 175 188 253 40 35 151 241 107 223 219 199 218 206 117 37 176 197 122 111 251 148 235 80 44 200 163 173 179 57 50 45 232 238 42 16 17 194 1 124 161 221 68 124 171 185 161 91 127 27 202 122 175 182 202 220 126 109 137 49 166 187 94 142 169 136 159 186 74 160 54 236 125 122 104 40 52 9 132 179 36 78 45 211 4 247 175 130 100 56 179 10 
