P2
# imagem.pgm
100 100
255
59 67 16 78 225 19 26 114 102 169 29 194 104 5 109 168 213 12 154 128 102 238 144 31 234 95 9 214 170 132 213 229 199 229 51 168 248 78 27 95 247 56 33 95 61 142 8 18 154 162 147 1 144 35 32 123 130 41 81 45 173 38 18 117 11 70 29 3 148 56 98 139 112 132 235 174 18 243 192 173 149 83 174 38 119 206 161 249 248 242 38 165 24 57 26 35 127 56 38 19 
112 137 158 225 13 137 143 31 124 79 204 18 163 122 56 26 73 217 19 65 203 58 230 227 115 1 6 242 57 44 5 169 181 163 138 194 45 25 226 169 105 174 187 12 41 243 38 114 204 57 179 151 115 153 122 230 154 128 216 211 173 221 125 98 129 7 37 174 33 7 87 138 181 19 150 222 6 188 80 211 245 3 106 105 157 229 79 55 101 40 11 18 5 136 117 134 143 154 52 176 
161 140 58 86 159 208 53 165 140 133 120 130 137 227 235 38 200 58 93 45 98 104 64 104 240 181 238 128 79 35 48 240 175 107 70 78 59 123 243 200 1 108 74 138 79 53 176 23 111 13 68 210 118 132 58 102 57 40 230 136 75 23 120 250 130 191 72 189 58 60 133 59 168 207 197 247 4 117 14 116 131 82 70 249 215 128 95 16 168 70 153 244 93 17 238 223 208 55 156 11 
115 34 70 27 241 12 18 246 129 32 106 4 114 176 253 73 48 93 90 216 163 243 204 0 4 187 223 213 242 123 224 101 157 38 128 143 50 146 133 180 178 239 184 36 159 182 110 207 19 200 167 182 187 116 182 191 47 149 148 33 16 116 134 174 155 6 61 205 152 194 129 74 177 58 110 80 240 220 31 3 164 198 185 95 58 111 31 105 4 179 138 20 40 16 194 195 22 255 144 174 
193 18 248 114 76 103 194 60 67 225 63 232 168 248 71 226 103 102 76 107 26 214 127 66 231 66 5 253 65 149 172 3 167 164 117 243 11 56 47 79 25 110 55 193 102 126 164 205 229 240 56 255 198 184 65 173 250 70 171 59 219 87 62 131 251 180 118 7 236 166 86 5 20 141 199 123 11 107 72 240 91 129 239 33 57 48 207 51 118 122 110 82 209 173 213 204 97 75 211 77 
241 41 82 6 182 25 129 194 132 201 178 223 74 162 1 131 210 208 182 73 74 37 155 27 210 112 231 51 187 187 128 173 228 210 179 155 236 52 93 112 253 15 80 72 177 81 203 132 33 130 205 107 167 104 134 121 216 109 172 147 40 44 64 13 254 243 168 234 39 5 91 37 20 171 109 198 252 56 74 29 186 23 136 97 127 14 218 87 123 134 234 164 178 43 177 177 30 89 155 70 
94 246 107 114 161 216 56 157 16 130 186 203 153 66 44 24 80 7 111 204 141 90 112 64 133 33 241 163 122 140 233 216 131 84 74 36 44 131 194 61 5 124 8 159 191 52 183 15 59 39 219 201 129 75 9 6 108 250 169 230 134 147 190 9 231 9 46 20 140 240 81 145 108 89 48 43 141 232 59 201 15 22 146 144 98 155 150 206 149 63 181 27 210 115 37 186 124 83 206 8 
67 31 154 175 120 202 219 5 178 22 206 193 44 96 81 142 251 231 93 144 39 18 172 249 133 209 179 2 36 129 10 103 160 164 22 24 111 241 30 33 7 236 227 52 77 52 194 72 28 31 217 67 49 133 60 183 86 240 185 122 113 195 225 18 104 247 42 215 233 72 248 240 53 219 36 130 16 231 202 44 6 163 111 56 40 171 239 126 155 168 248 13 107 217 31 211 209 73 170 186 
146 163 170 199 126 207 73 142 182 19 186 188 183 41 244 223 213 227 94 112 139 86 125 247 48 156 202 1 230 117 187 120 24 101 63 150 52 136 37 234 155 223 167 82 9 155 50 222 127 144 78 10 230 204 1 22 104 204 23 78 65 210 198 89 56 5 239 108 141 20 87 41 244 254 123 253 153 173 219 24 61 41 35 36 245 36 58 94 240 82 172 49 36 115 138 92 120 122 201 6 
142 32 47 130 30 170 127 183 88 90 208 149 132 243 185 121 23 244 215 8 70 132 57 106 247 196 199 111 62 144 117 204 176 164 79 206 79 206 133 167 41 85 60 173 72 246 38 96 234 254 104 48 130 161 154 121 101 97 232 163 241 94 112 161 2 191 111 81 141 245 248 182 74 53 99 147 43 138 243 21 136 91 69 10 252 223 131 98 65 107 5 50 201 117 212 204 52 67 29 194 
56 22 120 131 75 220 22 118 102 9 139 238 100 208 248 96 175 123 194 240 230 200 35 176 61 247 124 114 58 153 52 115 175 172 246 250 136 12 112 238 21 251 220 121 203 212 217 123 79 156 107 54 100 142 230 161 133 98 19 192 251 71 51 171 244 41 165 124 53 22 107 74 17 71 195 221 28 156 88 107 56 195 161 156 82 135 62 215 233 81 151 229 153 202 144 141 243 53 9 40 
75 116 114 93 188 53 58 216 210 146 67 10 85 229 167 167 108 229 127 86 54 22 59 207 225 203 92 212 0 102 253 76 218 111 169 150 165 227 110 119 117 178 129 202 151 40 114 3 13 241 89 68 7 148 19 232 95 112 189 96 214 186 172 176 41 85 71 206 56 181 69 173 103 199 119 254 239 233 2 253 218 91 65 226 240 84 202 79 196 135 175 154 65 91 75 107 176 146 57 232 
71 127 149 175 70 13 173 53 246 175 50 209 11 115 179 251 200 125 74 140 5 250 39 70 85 114 177 6 4 235 238 75 106 132 250 176 145 168 229 135 87 24 88 98 139 11 93 83 137 168 224 142 162 7 212 247 121 134 253 125 113 236 200 219 112 195 139 1 107 112 136 194 136 225 37 20 236 130 103 117 42 71 3 204 78 216 196 199 94 193 68 207 173 13 170 29 208 53 30 59 
165 167 253 46 136 34 66 116 165 169 234 207 241 237 156 63 197 96 7 35 33 75 242 207 88 156 236 40 209 11 99 119 178 97 165 58 131 231 174 40 144 152 248 129 134 148 193 75 244 200 111 21 19 97 228 108 254 209 148 207 220 248 70 142 89 235 200 220 210 118 5 99 15 253 228 149 145 165 224 133 109 79 154 129 177 127 237 175 80 129 126 44 121 197 186 210 176 130 175 131 
248 180 230 7 177 202 156 66 112 125 199 221 204 97 94 125 224 75 44 48 205 171 92 70 112 22 25 32 152 200 163 145 124 137 152 45 84 53 111 196 178 54 161 126 151 0 252 120 75 40 168 24 211 5 95 67 27 120 100 180 64 7 69 188 145 221 233 229 18 88 169 196 142 74 67 37 74 63 157 150 103 70 174 59 75 13 126 102 133 226 26 197 234 95 129 123 61 106 96 79 
194 9 20 80 83 87 118 158 150 19 52 253 89 226 56 164 240 183 11 117 153 37 59 131 133 188 254 194 39 94 17 233 103 37 58 187 124 176 89 18 195 141 16 29 111 72 193 95 255 204 213 153 242 16 28 119 204 27 57 243 121 74 221 225 112 23 156 236 199 245 255 138 130 15 167 241 87 105 81 87 53 38 240 39 54 12 158 2 39 215 246 161 34 211 130 146 234 30 126 177 
19 125 59 149 140 227 134 228 76 215 59 129 253 43 169 51 55 71 54 95 31 44 0 65 255 130 211 233 160 81 154 179 207 213 72 91 184 206 63 4 166 122 134 163 165 47 215 221 118 13 60 149 57 60 214 56 190 169 33 94 251 187 17 202 144 89 37 73 39 101 77 205 223 211 113 133 2 72 98 121 85 158 14 142 218 229 198 152 142 231 246 137 162 7 83 50 96 121 123 135 
222 201 85 189 156 198 66 159 14 164 24 99 66 38 241 28 11 183 180 154 158 170 35 64 177 119 114 17 240 238 153 206 183 238 139 83 180 206 242 194 114 10 37 181 49 22 209 60 205 134 214 107 48 250 171 226 113 29 243 97 11 140 47 194 122 186 22 46 136 8 240 251 19 21 176 68 43 129 128 248 7 87 99 56 81 14 26 194 44 13 35 55 154 82 250 20 12 16 67 149 
24 51 144 43 73 64 111 116 193 240 109 201 71 208 1 152 223 27 90 11 40 125 66 194 207 60 215 219 76 26 112 101 77 0 144 150 64 0 11 2 240 120 203 55 72 204 207 39 231 41 50 15 166 117 210 117 177 169 80 254 195 193 99 16 193 243 167 2 243 178 4 227 42 207 26 114 155 233 154 130 18 204 145 184 65 99 45 243 12 126 241 207 63 84 224 0 71 135 2 59 
57 6 30 99 213 57 213 112 34 111 242 53 60 132 237 125 231 27 112 244 153 97 195 216 181 163 216 253 42 219 56 99 225 86 198 183 143 156 39 178 11 26 231 71 158 212 197 133 239 53 121 136 151 61 96 76 224 57 73 11 20 129 110 245 216 53 172 103 209 212 25 220 238 0 36 140 213 233 17 196 30 139 77 181 200 173 2 168 230 75 179 250 205 34 240 165 87 156 12 40 
112 38 4 94 38 40 234 251 17 252 192 48 135 13 229 79 186 231 247 161 51 171 155 0 205 139 165 36 40 177 76 152 215 80 247 254 121 225 249 138 221 185 186 100 198 160 179 129 135 171 34 186 86 189 186 35 73 95 71 113 17 147 9 232 227 0 230 92 226 224 231 191 153 161 36 96 65 215 225 201 130 3 131 216 192 62 251 9 157 66 122 174 213 132 151 185 132 125 21 102 
93 252 38 247 158 74 87 223 33 56 168 164 59 44 124 251 106 120 5 7 186 127 182 144 3 77 73 136 202 94 238 40 91 20 31 249 94 118 216 128 174 129 36 233 173 160 228 23 24 233 30 211 105 212 99 108 33 172 244 236 10 227 20 101 247 51 94 86 169 55 214 87 184 250 64 101 154 36 124 179 14 154 134 119 111 233 227 144 149 216 124 159 187 144 5 178 195 99 8 108 
154 222 195 82 216 3 183 115 40 51 38 54 206 172 173 61 149 144 205 42 104 74 201 35 218 206 214 158 50 222 10 204 189 206 31 149 209 214 8 249 10 46 47 216 218 220 21 111 109 226 153 213 44 99 249 7 49 207 165 99 173 175 48 106 125 79 0 79 37 8 72 47 55 120 7 17 84 28 129 193 255 26 151 43 125 144 50 175 95 215 18 12 135 66 119 4 145 119 83 183 
127 156 230 182 20 238 200 104 10 73 42 9 99 193 53 225 81 103 144 176 63 162 188 198 229 51 202 118 170 30 45 42 186 20 224 206 2 168 54 12 241 96 22 85 33 75 54 114 178 198 34 241 104 223 183 77 18 130 196 189 160 241 231 90 5 199 40 7 112 94 20 97 191 42 182 224 117 236 83 39 178 117 25 27 84 208 104 103 82 44 36 242 30 11 76 35 210 116 43 66 
211 63 164 146 105 90 114 222 71 197 5 249 59 30 20 143 239 125 246 65 169 26 52 199 37 128 235 248 245 22 58 200 85 222 90 190 57 204 156 128 146 161 121 205 192 142 92 175 11 83 240 180 109 36 124 147 165 103 139 154 125 197 98 210 164 188 144 221 136 44 93 26 205 214 231 141 100 68 60 111 151 45 36 4 81 160 151 246 7 34 144 132 232 242 86 140 174 230 105 55 
18 198 81 223 156 57 109 1 125 169 112 20 214 148 24 40 52 176 30 59 210 175 191 186 161 21 70 80 251 175 135 13 117 216 237 18 17 90 19 142 3 131 162 218 24 187 2 76 107 32 136 61 207 71 248 113 93 62 193 88 238 72 102 99 32 83 117 50 173 136 192 176 12 99 138 36 30 140 112 137 173 248 198 124 64 190 237 157 253 174 245 235 246 91 78 23 174 196 73 91 
76 9 12 88 108 150 124 138 35 237 19 208 229 218 76 37 152 58 194 149 232 184 128 223 19 207 246 194 147 63 29 223 72 41 56 181 192 180 63 227 161 83 179 135 45 255 172 197 57 111 91 34 39 219 1 58 170 247 252 61 54 26 29 126 67 85 51 3 9 115 230 171 198 153 50 243 153 222 184 210 77 19 244 116 239 245 175 153 236 171 215 34 197 244 161 9 73 212 12 82 
71 243 253 13 140 47 0 37 14 185 248 91 204 236 208 187 226 127 85 206 42 44 241 240 32 146 249 105 102 5 187 174 248 185 187 133 232 188 170 246 117 162 82 65 143 34 253 113 161 82 63 203 126 48 187 158 194 180 7 41 186 194 215 178 123 146 55 100 78 226 90 195 132 172 5 19 206 2 132 111 84 196 59 210 244 246 112 183 171 119 224 101 57 183 23 181 73 79 25 152 
49 115 91 181 32 96 201 238 98 77 94 182 17 153 136 6 143 248 189 58 111 157 159 169 84 183 94 157 6 119 53 55 234 145 236 10 241 181 249 84 3 87 10 20 240 147 26 127 139 215 186 251 116 89 164 200 16 2 102 22 121 155 77 99 44 58 110 30 239 103 114 242 190 124 7 174 15 33 45 155 249 231 150 109 65 58 54 81 60 156 104 181 55 181 24 100 239 134 130 223 
237 244 209 171 112 216 89 128 250 135 27 243 110 177 96 175 235 150 1 39 50 105 220 106 30 244 206 14 123 80 237 104 68 190 20 180 151 109 52 145 244 79 132 99 0 228 18 235 123 19 18 173 124 238 23 155 227 229 169 94 53 150 198 121 84 218 46 235 72 98 124 60 178 0 159 178 229 178 158 96 197 176 13 66 159 37 221 130 10 134 224 64 28 166 185 112 129 231 92 201 
74 216 5 252 217 165 174 190 87 76 30 28 253 43 94 156 80 59 30 91 193 254 155 221 164 84 78 37 60 170 238 134 130 244 130 91 153 48 25 240 125 55 12 122 99 107 22 179 166 52 14 104 50 169 69 214 254 147 252 58 61 234 192 192 222 66 27 119 114 53 103 239 108 116 105 207 223 127 131 133 179 145 237 229 59 51 188 57 198 184 115 4 162 51 196 129 117 223 248 231 
20 96 215 129 212 64 80 179 192 211 56 115 101 38 89 160 89 21 217 31 205 76 35 111 127 231 240 244 199 233 219 219 73 178 92 29 243 173 208 179 128 8 38 229 46 127 133 135 148 94 167 97 170 202 209 41 178 193 29 121 170 249 84 243 171 177 16 158 94 224 81 222 233 120 196 23 247 73 159 140 168 70 237 82 16 190 124 194 128 153 59 42 146 144 30 62 65 46 220 159 
15 46 125 248 166 65 15 157 139 174 41 51 244 23 133 5 213 1 199 85 155 3 128 45 147 158 107 212 204 72 115 219 118 240 211 28 50 227 185 189 145 227 240 134 250 117 139 207 119 82 37 18 85 165 63 232 67 171 188 15 243 47 235 105 32 190 133 82 161 62 15 51 33 255 185 27 116 68 235 235 150 16 253 236 181 61 212 248 232 145 7 219 192 242 68 224 177 201 50 82 
7 65 133 41 64 62 68 181 130 47 160 25 63 158 5 244 219 217 236 195 106 244 158 43 230 226 11 151 171 62 234 178 127 111 219 192 174 32 117 48 79 21 73 143 179 78 131 142 40 112 81 146 100 239 189 74 209 201 226 124 7 204 47 134 59 10 70 233 42 187 26 122 209 99 9 132 178 140 19 218 252 100 108 96 84 42 171 37 243 141 162 250 89 209 128 148 219 199 126 6 
130 152 128 83 251 137 216 173 21 235 135 18 79 244 114 163 30 29 201 17 170 107 11 3 60 139 152 23 82 22 29 213 174 157 40 169 38 0 87 60 235 222 78 59 210 192 222 240 222 167 1 136 18 12 140 78 152 36 102 234 58 131 191 232 33 232 145 71 232 232 131 212 199 209 15 153 146 237 138 112 149 139 248 167 152 132 246 48 168 92 26 226 223 218 202 0 194 92 72 170 
68 203 126 11 157 141 165 47 123 47 159 16 186 151 183 82 28 173 130 196 9 157 167 233 119 113 233 57 205 49 227 18 253 98 29 154 239 194 201 106 241 104 122 172 255 50 254 27 223 129 224 233 30 135 210 149 248 187 206 198 237 177 216 234 19 245 132 3 184 77 109 169 181 232 85 180 26 84 208 249 213 176 226 243 55 180 136 47 112 86 245 93 7 205 71 27 195 203 30 123 
24 139 36 205 115 122 129 141 206 81 135 163 1 105 150 56 30 30 104 142 116 93 235 123 43 50 150 238 253 180 105 21 64 141 226 179 7 99 65 213 181 200 120 182 49 14 239 79 44 87 221 160 180 200 28 223 250 178 205 247 103 54 12 167 196 238 90 203 82 155 161 7 99 25 189 149 40 172 228 84 3 194 245 184 138 17 151 133 195 101 124 42 155 137 209 95 119 44 43 201 
199 204 208 43 229 142 192 13 58 164 98 62 102 87 246 241 104 141 118 43 242 242 86 142 123 39 237 243 83 24 188 27 228 141 70 202 27 6 215 85 170 57 147 17 144 137 2 248 23 120 36 9 106 122 151 230 161 133 217 245 157 149 16 130 34 86 76 61 92 35 147 6 93 38 23 237 176 25 230 199 145 10 208 252 132 104 226 37 237 187 26 138 80 42 12 115 128 88 176 220 
124 67 227 217 106 250 198 26 20 172 225 165 182 177 161 58 25 131 96 6 62 122 145 143 165 157 2 37 246 178 2 114 246 229 75 96 223 17 122 243 190 91 153 116 12 58 175 38 190 15 44 252 137 189 139 46 91 141 84 81 64 86 195 54 59 14 150 26 31 16 14 221 107 167 82 119 225 1 157 159 16 202 156 153 135 39 200 226 181 28 51 245 114 246 43 173 4 193 199 36 
209 213 1 60 124 83 179 94 84 81 253 100 27 153 254 162 193 198 133 118 226 184 107 84 175 150 1 179 87 200 215 40 158 217 100 26 44 23 120 129 104 118 229 131 15 227 38 208 169 171 70 139 99 177 223 18 71 224 198 158 169 157 198 71 118 42 97 163 66 218 36 170 80 9 46 95 237 84 48 150 255 118 34 98 40 1 117 111 226 59 14 139 216 212 210 79 255 51 242 65 
13 22 235 93 31 25 189 12 109 237 163 108 99 197 207 139 198 68 251 168 127 9 51 87 221 5 166 220 57 152 29 70 174 9 164 206 34 97 218 144 78 125 252 177 66 203 61 9 15 56 177 142 65 229 230 30 234 140 251 35 37 24 106 211 33 14 161 68 111 124 212 189 249 208 110 60 156 171 69 171 227 246 58 36 219 32 67 198 172 62 233 209 86 83 165 120 97 70 188 208 
194 144 141 188 96 252 248 252 167 61 168 139 51 226 175 15 2 242 213 174 48 190 128 135 18 37 255 115 107 187 68 46 75 209 234 171 205 226 168 117 31 80 0 82 50 175 97 52 162 54 226 210 245 98 89 7 135 88 122 243 19 190 33 94 144 11 10 93 237 178 210 12 2 210 94 52 130 192 104 36 246 74 246 235 173 80 242 52 168 109 39 188 43 72 26 187 83 36 25 64 
214 235 76 216 190 171 12 64 107 116 100 97 191 90 77 108 170 63 160 83 172 200 15 216 16 41 147 100 78 172 164 36 152 241 253 86 156 9 150 7 126 250 104 61 84 181 169 255 245 73 82 161 17 97 121 34 138 13 134 216 185 42 253 81 27 250 167 183 3 61 190 129 55 39 190 140 220 103 139 209 177 221 115 194 62 236 228 200 249 106 161 179 149 158 4 176 152 172 104 155 
233 38 29 33 77 219 173 42 67 56 251 244 21 110 182 83 91 155 27 84 5 188 7 154 90 12 75 242 184 179 142 161 217 171 194 39 134 111 81 201 167 76 189 188 187 116 15 22 15 43 106 20 231 114 175 66 126 250 52 54 173 194 215 134 109 154 173 244 9 254 189 177 75 123 109 6 239 125 28 254 168 134 18 143 248 193 209 118 187 6 172 104 200 132 239 54 30 156 42 39 
155 231 216 230 98 70 236 81 195 8 79 107 142 98 250 135 35 204 253 223 210 170 71 154 46 54 208 76 211 250 115 110 226 76 84 68 146 64 150 85 72 229 192 214 71 186 93 107 134 91 74 88 5 145 243 51 200 195 127 155 190 242 9 160 62 93 228 208 157 122 37 229 96 229 187 167 160 25 18 38 116 92 127 121 238 114 172 182 53 43 81 243 29 90 147 92 183 120 44 84 
242 82 57 82 55 244 250 215 13 12 254 129 105 125 250 87 239 166 13 36 209 94 24 239 184 171 75 111 35 119 195 22 201 252 104 1 240 98 216 254 111 214 127 216 83 122 47 66 32 60 103 242 154 127 225 82 42 44 193 78 163 132 100 109 128 204 110 112 47 70 110 158 29 238 118 112 104 165 179 136 225 26 122 123 153 91 205 195 135 142 17 43 18 117 152 146 66 6 2 113 
76 113 15 105 95 133 218 199 42 141 79 11 167 202 134 64 37 83 3 173 225 21 216 243 138 112 133 204 118 135 61 194 248 76 44 87 209 6 30 251 147 110 6 58 56 140 122 93 223 125 10 192 146 226 179 29 82 56 233 200 192 39 139 184 115 183 16 69 189 46 64 80 156 71 138 212 211 4 50 179 129 60 115 20 31 39 49 113 95 26 58 31 65 197 216 181 124 232 250 57 
22 58 137 179 129 19 135 85 23 185 8 152 246 123 172 21 162 221 134 2 248 192 33 57 133 249 238 1 225 232 58 248 35 195 171 164 214 50 249 237 236 1 134 226 125 50 247 31 16 125 33 8 62 67 65 195 60 48 197 30 24 255 22 59 195 193 224 153 243 217 135 223 219 13 193 88 63 184 119 79 54 153 87 116 220 153 55 24 201 252 54 225 252 76 29 191 13 253 88 1 
214 223 224 177 236 162 9 44 90 129 123 144 26 211 4 246 108 60 14 53 56 69 22 52 145 51 243 159 48 76 160 7 43 128 184 24 34 194 68 125 67 191 13 93 146 18 83 254 78 97 51 134 166 74 187 56 125 174 215 174 250 119 181 38 247 109 62 26 47 130 151 114 65 164 207 212 182 34 210 4 132 6 139 42 80 70 98 205 244 57 123 239 176 48 21 168 158 83 194 205 
213 89 64 22 253 15 234 180 50 189 184 182 195 67 224 19 137 67 224 126 124 92 109 45 140 130 213 42 213 151 248 170 240 56 192 237 71 171 161 121 104 90 47 43 157 16 62 39 83 30 165 207 122 18 252 7 148 209 49 105 104 41 19 88 97 211 70 169 126 231 34 230 65 82 17 223 98 79 6 181 110 171 132 232 189 129 239 81 82 33 186 187 74 205 19 172 160 89 85 31 
65 119 5 130 201 23 97 43 102 103 224 212 18 101 189 207 230 172 32 56 205 218 243 24 167 7 196 72 96 25 103 161 144 108 36 90 131 133 133 234 237 102 190 255 203 123 207 177 40 239 233 245 202 221 13 113 228 209 185 68 234 32 230 123 141 10 213 16 143 90 250 124 192 185 124 139 52 75 60 92 58 38 82 4 3 95 118 231 49 47 43 27 80 17 150 221 27 107 237 171 
198 232 39 134 161 163 18 213 238 78 50 41 116 132 45 119 227 163 94 20 211 138 48 35 155 198 0 183 50 237 98 248 213 137 126 118 45 144 76 27 223 126 68 83 2 114 203 229 21 41 250 232 179 42 11 79 240 11 6 34 249 104 26 206 241 153 69 30 41 145 58 8 15 126 92 17 240 39 246 6 80 240 238 4 26 250 83 11 5 89 45 254 193 72 205 178 225 18 209 10 
163 11 19 178 137 111 195 122 150 185 128 230 170 110 234 196 104 61 207 110 150 253 108 87 69 57 10 38 75 219 48 238 230 67 160 111 178 99 233 72 29 105 47 199 216 25 139 64 87 91 174 237 88 27 69 157 84 79 195 160 42 243 142 16 55 47 127 233 146 105 50 175 210 97 118 170 122 2 235 209 93 153 191 181 180 4 82 9 83 21 169 125 8 55 141 63 102 12 41 249 
117 91 168 72 188 31 242 54 33 221 8 126 119 199 51 43 203 133 52 30 154 221 155 162 21 40 226 123 52 11 116 170 102 29 242 34 60 228 88 93 194 96 219 57 39 14 100 242 147 153 16 45 118 171 207 139 211 177 7 8 188 123 178 34 152 164 68 212 136 157 49 74 253 12 131 37 26 232 23 173 129 40 218 247 211 170 131 167 91 138 175 24 5 97 58 158 5 127 114 141 
28 164 216 25 176 91 62 203 67 86 120 196 126 83 188 81 253 63 248 88 201 167 112 206 8 171 108 13 42 223 155 70 131 115 95 51 206 158 254 18 244 119 214 114 202 146 195 199 209 188 31 154 99 144 105 108 59 213 121 101 180 20 171 55 135 10 107 86 168 105 104 156 224 62 14 170 209 210 113 162 142 145 61 241 33 166 93 92 123 215 193 48 235 108 103 115 118 210 201 31 
60 49 187 28 111 202 199 64 156 56 227 42 201 32 27 234 198 121 70 65 80 7 113 59 115 217 174 234 171 119 9 231 168 196 4 24 142 203 88 42 3 59 84 205 91 112 183 33 233 254 99 57 5 212 116 121 173 35 99 89 154 108 64 67 48 68 91 191 15 179 233 19 239 62 224 74 174 151 108 151 149 207 208 155 163 68 20 81 103 119 170 2 227 234 69 19 47 160 210 62 
83 188 81 66 250 49 141 168 201 249 63 94 200 15 249 107 83 13 188 187 132 102 189 103 81 2 123 128 162 77 190 245 9 16 56 3 65 197 171 10 190 234 105 134 249 98 241 77 112 174 8 244 20 197 92 101 199 215 229 105 36 164 94 46 180 150 49 245 91 221 0 25 199 105 159 193 203 145 14 59 63 22 48 83 219 140 185 162 99 158 11 135 66 105 181 246 0 231 236 91 
196 236 117 139 85 20 76 32 165 90 92 228 112 140 56 75 24 241 237 123 143 248 2 210 98 184 200 98 159 180 189 99 160 50 238 245 71 59 22 236 149 114 209 6 254 9 81 22 250 63 145 137 55 147 91 153 75 36 251 234 216 185 77 121 235 60 110 50 119 132 31 12 246 240 18 244 249 100 10 243 163 155 124 218 47 216 116 122 252 111 101 212 40 178 77 20 238 188 70 101 
64 101 114 55 85 132 43 78 232 54 65 139 209 190 102 0 150 218 123 146 73 224 102 114 146 180 134 129 112 204 230 176 50 88 231 135 221 19 214 197 73 23 81 26 213 183 27 107 145 150 253 218 118 100 76 8 24 210 137 136 159 112 56 209 200 32 88 165 51 46 107 124 70 188 150 27 115 177 135 4 71 132 222 189 232 43 198 0 253 79 136 156 191 193 109 136 225 198 45 20 
244 152 144 58 84 38 86 199 216 221 203 31 97 170 221 74 213 163 74 210 242 211 111 178 148 220 58 117 162 103 137 151 0 25 209 84 63 39 28 23 4 231 55 102 145 20 176 102 183 250 57 169 205 168 91 97 132 149 214 39 253 95 190 253 120 143 81 184 183 109 207 187 85 6 33 230 26 209 77 209 204 134 123 153 46 214 251 178 108 209 217 105 49 151 102 169 39 183 97 222 
37 49 153 122 55 187 96 82 140 173 35 88 51 158 242 97 117 237 20 225 190 237 74 239 133 176 153 172 103 250 138 140 43 35 6 99 222 103 181 107 20 216 195 72 119 181 169 236 162 189 205 97 171 23 80 48 199 233 220 46 228 102 187 15 137 193 114 104 40 39 211 61 0 150 133 119 76 46 99 238 236 48 79 151 71 160 199 14 137 163 60 109 9 247 125 146 185 239 250 225 
23 205 30 23 100 163 142 176 210 241 158 190 33 238 85 104 142 28 118 23 191 178 133 200 170 2 90 99 241 85 68 8 34 99 31 134 6 173 54 216 158 213 150 191 195 235 39 81 7 157 104 198 80 237 142 250 239 233 93 225 62 161 233 96 4 9 231 11 182 29 227 85 242 122 20 181 101 60 6 109 217 111 51 41 92 194 35 76 171 128 45 233 34 22 73 38 31 48 49 214 
78 21 43 64 143 63 246 244 123 252 97 85 107 149 126 200 87 162 20 2 34 65 235 68 87 52 107 119 101 156 77 179 177 120 243 64 183 233 53 51 230 150 136 81 43 6 25 130 168 45 132 203 110 111 15 198 164 122 61 9 23 138 188 200 2 175 9 185 153 62 236 127 212 116 208 0 123 234 130 35 23 7 238 134 118 254 76 26 120 137 35 143 19 223 88 21 143 97 206 40 
159 187 167 115 47 119 115 170 97 246 206 121 253 188 255 115 186 75 142 51 212 177 194 231 145 26 252 32 123 202 72 26 133 239 142 181 102 1 95 200 247 45 65 244 234 64 104 164 139 246 215 95 167 154 70 56 180 66 88 48 12 160 74 146 143 216 71 246 218 166 190 209 212 255 198 190 63 46 98 202 36 58 41 203 212 111 4 136 177 92 184 189 253 3 79 140 219 150 130 181 
61 64 135 17 63 77 207 126 123 49 72 159 107 113 106 63 224 110 200 145 203 128 79 200 131 158 84 95 53 215 20 114 23 155 131 87 232 82 213 99 131 30 2 239 143 109 46 112 219 246 1 166 119 80 110 250 239 195 89 36 154 110 150 177 9 25 8 242 107 222 85 238 252 88 221 139 197 12 251 160 2 253 71 121 77 181 116 60 120 205 96 18 59 246 196 69 15 204 55 122 
170 140 105 166 228 70 50 169 82 45 74 85 42 145 206 120 70 66 180 191 16 21 209 75 11 149 144 27 98 199 149 12 84 254 179 56 69 229 226 151 18 44 236 61 189 187 181 3 253 105 194 13 126 148 89 138 41 233 165 139 177 58 152 5 57 75 61 126 48 31 21 66 75 2 127 8 189 52 12 186 158 206 200 28 98 33 166 140 10 75 23 187 134 175 192 191 250 254 61 42 
29 82 109 105 84 236 113 17 33 125 204 191 76 148 219 174 181 130 58 191 205 82 123 83 1 59 18 252 57 79 38 87 162 147 192 246 128 49 8 161 175 212 96 251 104 59 169 29 189 228 220 139 54 87 222 55 147 241 51 204 64 90 35 226 237 227 217 109 21 225 14 196 181 110 191 29 170 104 58 103 76 22 242 130 110 209 186 1 194 237 205 2 71 241 229 53 212 190 162 233 
159 177 173 84 31 108 113 201 213 171 49 33 193 35 164 47 244 94 48 182 75 254 185 147 239 158 200 195 92 106 173 251 27 90 79 59 199 192 4 156 107 53 189 44 89 97 92 77 191 140 4 11 138 189 158 121 91 102 61 183 208 234 178 236 68 1 39 11 193 43 167 44 97 101 88 186 198 180 7 134 65 11 145 203 200 47 69 35 149 130 218 101 108 140 81 176 141 120 188 78 
164 99 122 5 200 211 191 143 135 198 21 200 210 166 148 154 213 217 190 106 91 152 207 199 37 33 119 178 153 51 1 61 151 123 66 95 78 1 238 214 200 3 158 154 169 50 52 126 11 242 232 102 139 184 45 176 217 165 98 114 216 99 176 111 223 242 207 45 244 189 3 188 193 162 86 106 212 138 233 224 125 209 70 8 137 116 184 98 25 26 213 241 126 133 97 93 119 48 138 107 
237 142 39 174 48 125 25 4 8 2 228 133 211 43 141 93 159 69 191 184 95 148 169 221 25 10 58 145 58 197 252 40 83 36 214 131 161 239 135 169 241 108 46 197 151 187 34 54 0 225 238 96 118 151 61 143 162 120 32 220 61 29 4 144 65 219 19 226 202 154 140 188 6 186 129 157 118 163 211 118 132 193 214 250 89 20 138 251 140 170 215 201 199 220 89 8 183 108 235 129 
6 119 61 13 49 190 170 167 97 126 30 230 63 244 224 152 8 106 147 148 21 107 93 220 71 182 229 254 34 208 127 41 71 189 54 120 123 224 32 221 94 62 195 158 50 163 54 59 14 202 207 35 53 45 255 124 227 228 122 6 180 249 47 251 182 101 116 50 69 148 15 164 210 210 66 4 117 120 63 131 66 15 166 119 60 166 243 31 138 109 37 63 103 84 58 29 185 174 79 255 
66 94 163 20 48 229 25 166 93 88 41 160 103 208 23 163 118 11 195 0 120 232 63 223 61 122 253 246 40 76 245 107 171 152 127 219 125 152 129 219 241 171 123 88 123 146 252 241 157 191 241 22 167 49 245 228 171 242 219 211 63 208 62 234 105 190 197 230 86 71 193 71 242 60 160 109 207 156 94 108 91 79 130 2 128 120 231 43 106 194 255 169 146 61 147 251 251 89 226 82 
160 163 153 146 224 57 255 175 213 93 27 48 172 158 51 45 22 26 88 128 220 87 42 110 149 189 106 144 22 76 226 182 239 124 72 207 181 71 126 139 164 154 187 81 56 238 126 78 8 214 206 228 46 248 83 195 182 189 83 204 9 54 131 248 178 203 200 103 19 70 242 183 224 174 8 24 156 134 102 165 93 53 137 139 45 220 78 227 153 161 176 162 215 51 155 137 254 99 241 17 
169 227 201 138 145 209 162 46 88 9 211 181 62 92 64 107 57 142 79 210 47 255 117 7 50 16 144 48 115 129 66 28 101 11 166 246 220 73 36 52 82 247 233 144 84 41 251 141 183 74 95 231 73 212 238 123 228 126 172 87 0 238 116 101 249 26 91 213 99 128 10 181 119 243 69 203 29 65 88 212 139 184 187 213 140 169 80 113 40 252 200 40 234 60 141 227 87 232 185 186 
104 195 112 224 182 181 171 211 246 4 168 130 188 99 87 72 13 167 185 53 164 130 93 142 190 234 114 21 210 43 208 59 238 64 27 164 245 198 120 236 202 32 110 134 131 197 207 144 108 136 197 16 10 34 159 201 12 17 222 223 60 174 26 42 238 53 206 228 251 70 208 198 102 62 76 234 3 27 122 111 164 64 128 174 98 31 119 111 48 86 78 108 4 104 150 243 157 100 215 152 
171 167 94 17 229 171 251 232 198 118 87 106 182 215 25 24 246 144 135 38 230 213 146 235 61 40 222 218 141 181 115 56 92 209 73 65 124 69 41 67 187 128 173 113 88 198 137 78 87 17 117 61 230 7 40 36 48 6 254 189 187 113 245 23 67 62 88 191 131 129 2 62 2 176 175 90 118 57 168 205 74 29 11 48 37 51 84 85 58 83 18 245 196 7 13 7 69 101 199 201 
231 201 7 233 121 183 67 240 240 235 189 58 9 200 106 46 252 191 131 54 18 149 43 214 156 56 222 225 158 165 170 133 110 178 110 232 105 177 216 89 156 149 147 165 94 253 211 90 188 86 144 206 235 187 165 135 244 131 105 146 40 19 23 150 197 133 126 46 54 86 135 210 236 26 120 74 24 75 164 212 162 52 163 141 239 72 21 227 203 126 117 243 145 140 137 87 17 8 133 71 
94 13 26 74 39 146 148 63 221 56 20 127 108 183 13 92 255 34 63 202 160 181 189 49 65 70 136 83 78 14 154 173 27 180 247 66 70 140 130 36 196 150 163 49 77 176 141 76 210 204 22 114 129 211 164 195 25 44 22 104 58 176 21 85 101 12 152 171 152 26 207 93 176 115 142 253 35 27 73 246 231 95 104 105 50 12 44 75 57 66 179 115 242 200 201 87 213 97 3 109 
123 210 202 43 69 88 40 105 115 113 95 91 208 199 196 2 212 240 77 13 50 1 128 36 201 73 124 158 170 127 12 37 81 214 80 151 47 120 0 162 233 95 253 185 38 193 187 250 177 9 7 227 10 136 8 211 209 132 114 124 3 126 161 84 84 242 235 131 106 235 38 84 74 35 13 113 229 201 107 150 210 115 122 220 251 130 175 204 6 33 72 9 159 234 93 244 220 73 119 70 
52 157 154 127 193 168 240 166 113 91 60 67 206 182 31 201 56 206 150 62 240 222 71 143 200 165 131 164 238 251 235 34 152 133 161 89 45 145 255 158 237 60 225 187 242 0 133 43 207 27 105 191 249 177 78 194 86 210 102 68 205 81 102 101 215 8 191 4 153 190 163 134 250 132 66 237 133 199 24 84 226 129 19 219 50 97 157 136 51 4 204 0 85 51 102 44 59 37 49 212 
227 212 91 222 88 157 203 221 100 227 49 70 100 68 33 151 166 191 31 217 195 236 218 24 31 64 69 90 101 118 46 72 74 137 38 162 38 241 128 138 212 177 208 57 246 242 208 156 177 239 117 116 219 79 140 250 143 209 84 244 71 131 61 145 12 99 52 51 85 180 189 41 101 142 98 91 128 50 247 49 34 109 165 253 188 49 248 76 3 76 64 74 207 125 220 220 225 16 15 54 
196 204 95 41 90 194 133 218 244 124 11 22 233 176 20 166 226 12 242 229 88 50 47 40 176 11 4 145 27 19 199 223 223 38 9 58 232 142 20 221 10 32 243 244 208 7 154 178 19 140 151 108 190 199 148 110 210 152 255 238 171 198 205 138 237 214 196 213 100 217 178 111 249 166 99 201 173 253 124 193 137 19 45 71 218 193 182 173 89 181 155 4 124 104 142 105 63 83 62 163 
44 241 18 37 151 117 238 68 114 106 5 251 126 50 67 88 243 249 5 76 174 160 80 42 9 223 147 72 50 210 235 94 195 254 131 90 115 113 158 230 220 164 225 90 214 36 178 202 29 184 22 204 88 103 246 97 70 138 169 120 92 149 214 31 147 89 121 6 202 23 236 166 187 206 0 146 242 179 92 16 107 114 220 195 217 210 37 31 92 206 151 184 99 109 215 246 198 80 253 145 
104 233 55 35 183 56 181 170 235 17 186 86 132 150 25 93 104 62 125 197 13 20 125 112 130 85 103 72 165 100 217 13 77 17 49 5 73 230 175 52 248 105 138 124 255 163 217 103 226 86 44 239 107 170 95 237 255 198 53 164 42 15 178 120 32 227 125 105 201 44 157 193 149 39 61 148 202 23 251 172 109 40 155 216 210 251 197 209 193 251 117 236 10 39 100 42 10 225 147 212 
13 48 149 162 87 211 54 33 234 49 206 87 89 105 48 43 100 245 252 38 240 114 18 250 153 118 36 164 87 183 120 100 231 13 6 62 224 60 96 202 109 46 34 199 151 82 242 252 71 239 34 56 97 52 50 250 170 87 158 1 14 22 101 246 36 107 52 4 167 148 207 20 194 241 219 90 67 206 86 138 189 120 194 30 172 245 24 86 76 183 87 90 205 188 80 241 39 133 246 206 
25 197 226 220 182 190 54 249 140 140 131 73 4 70 103 176 59 127 6 135 54 93 225 4 25 50 245 64 183 235 14 208 176 240 172 102 174 226 95 58 110 227 131 114 41 234 34 100 106 40 235 160 133 204 164 158 254 154 222 181 133 236 134 54 221 50 156 139 21 252 198 131 223 73 246 8 52 24 108 158 65 87 62 198 35 227 101 34 125 67 215 2 48 93 56 13 144 213 152 165 
209 94 40 176 168 30 184 220 55 36 122 120 123 184 62 158 155 163 192 24 231 152 27 23 245 83 36 133 40 188 42 249 27 83 169 195 113 97 159 168 133 25 32 0 209 95 159 109 2 95 133 233 247 160 0 237 244 36 114 28 225 157 22 252 240 191 191 97 33 94 10 166 119 42 167 72 137 70 181 140 165 59 117 157 219 118 138 207 154 252 236 123 153 2 119 137 193 54 235 226 
148 245 137 11 31 48 84 169 118 9 53 27 68 170 184 32 32 66 239 187 63 219 54 216 221 174 98 159 228 77 129 121 66 10 132 97 58 216 10 176 226 63 204 38 234 132 70 10 199 54 197 6 17 252 222 239 170 64 142 142 141 15 7 207 26 140 49 84 100 59 5 70 123 209 109 101 85 179 111 28 233 53 34 251 49 1 234 219 65 120 105 207 135 113 158 161 253 207 246 97 
11 251 168 134 204 21 235 33 200 90 62 178 143 96 173 192 97 151 155 163 15 5 114 150 118 16 56 115 224 46 212 235 41 124 113 245 145 92 22 90 182 84 12 70 181 185 6 22 80 162 185 95 167 43 245 29 60 45 144 28 91 100 7 132 225 120 121 114 212 144 204 138 228 216 208 153 145 215 176 225 121 105 64 32 149 54 61 209 99 205 237 191 49 244 67 18 108 189 133 64 
77 81 202 49 42 155 203 187 114 123 157 235 228 221 11 121 19 72 74 119 21 55 54 70 43 121 89 151 54 222 215 131 47 162 181 89 61 128 21 175 251 178 154 223 143 165 89 163 237 163 26 2 219 80 72 6 201 161 158 0 127 117 131 175 23 56 8 84 184 29 3 179 207 157 147 95 66 236 2 47 143 28 49 106 108 122 113 53 27 15 53 155 132 185 74 156 241 82 240 170 
112 244 93 63 145 240 158 212 220 160 3 108 188 53 214 40 175 71 94 202 86 147 101 219 76 175 119 62 2 103 232 114 91 69 177 237 54 80 193 18 240 196 126 173 249 85 213 168 156 51 115 243 199 216 206 19 136 69 81 138 172 57 252 8 127 173 245 181 253 182 199 238 122 70 155 116 155 112 28 55 164 143 42 107 104 248 126 240 61 208 122 234 9 118 242 136 35 231 61 33 
157 5 15 23 75 170 139 230 26 168 29 190 55 72 41 159 64 168 143 126 120 9 104 129 127 90 10 163 65 71 196 222 76 211 245 151 125 129 125 151 41 155 86 96 227 127 0 35 39 143 161 159 153 9 33 24 99 43 187 164 114 127 130 191 82 120 86 207 249 212 103 34 111 189 130 82 60 130 117 100 18 23 3 171 32 36 195 132 79 127 40 194 254 171 129 81 35 215 32 28 
171 135 62 26 68 192 108 129 67 226 229 85 249 232 0 25 13 195 157 92 66 198 30 65 113 159 146 148 119 178 176 34 58 238 61 126 174 169 255 241 139 228 70 132 205 70 158 218 10 59 54 76 1 85 141 114 244 31 6 107 210 182 142 12 164 203 138 83 116 138 68 0 110 139 132 59 209 34 21 219 94 76 40 95 161 181 210 149 213 216 1 167 143 143 179 51 90 61 134 206 
199 203 206 54 86 83 113 39 117 135 3 211 211 43 51 116 224 5 9 181 221 10 92 108 153 15 160 243 77 38 194 20 241 144 74 71 227 188 111 89 67 114 44 22 157 95 138 125 100 147 51 66 158 143 174 55 159 78 43 236 117 237 0 102 125 75 174 97 7 29 186 74 143 230 96 44 70 234 169 170 125 220 236 27 108 155 83 11 233 126 247 94 107 247 197 232 66 115 73 73 
144 3 147 31 234 243 75 48 221 244 218 91 209 199 118 61 98 201 72 75 71 63 170 178 54 111 155 121 226 228 194 114 232 86 145 210 73 220 2 39 208 220 130 161 163 248 222 5 194 38 81 9 101 251 188 156 106 87 21 76 59 215 190 35 45 79 245 119 43 247 158 251 212 32 157 119 24 123 125 218 162 206 228 7 201 160 163 51 247 184 127 50 144 61 86 189 140 75 52 183 
67 210 178 23 242 79 142 11 203 11 229 109 217 201 116 162 105 24 213 96 208 84 147 96 145 233 30 29 52 82 212 119 37 135 142 23 214 29 34 161 40 8 14 2 209 131 164 59 155 122 155 107 206 46 204 96 23 234 125 76 60 82 195 97 217 82 121 175 111 155 81 151 163 95 153 117 226 62 176 125 184 75 233 134 122 181 230 145 159 100 221 219 182 161 61 143 243 182 62 98 
81 143 249 245 239 147 106 209 209 26 79 137 101 56 15 223 237 246 113 140 90 78 103 16 239 164 159 226 90 221 68 172 109 62 161 92 209 11 45 162 37 124 43 138 180 58 106 161 48 219 45 138 41 149 154 25 57 57 251 148 23 64 64 132 126 225 224 79 236 13 241 17 138 28 155 62 86 5 224 135 224 13 17 10 162 172 35 220 229 30 112 252 94 176 128 220 145 96 43 125 
110 28 142 248 56 41 54 143 47 22 22 15 36 39 25 198 211 60 162 185 91 18 181 185 194 54 150 83 150 193 208 4 222 94 252 22 136 51 165 183 73 187 198 109 227 224 52 182 28 214 111 119 233 37 49 171 91 199 255 241 136 207 246 102 46 242 125 182 37 34 109 111 222 51 220 193 19 16 119 48 231 231 167 208 12 216 123 103 159 122 88 40 74 78 142 120 65 11 46 102 
46 155 213 12 206 178 205 226 194 68 18 169 43 185 121 55 146 245 158 49 111 247 89 185 69 232 49 134 243 95 237 33 250 194 45 201 116 250 171 55 63 189 224 106 118 90 162 8 79 64 58 190 55 147 120 125 123 169 3 111 9 240 144 3 179 190 204 39 184 119 94 247 52 63 98 171 153 4 179 232 68 237 166 124 129 30 249 252 200 252 107 209 237 252 212 160 186 161 199 114 
24 38 106 77 101 204 248 254 208 171 230 20 153 140 144 26 171 137 22 115 134 130 68 115 126 24 19 56 185 218 170 210 0 20 31 101 224 23 99 176 194 73 197 91 214 85 117 129 223 140 244 101 14 56 216 140 80 235 196 10 197 110 220 198 131 251 43 99 18 143 20 212 216 217 48 174 46 165 47 13 49 35 114 63 91 74 203 172 53 143 182 251 254 146 193 129 141 236 228 159 
